<?xml version="1.0" encoding="UTF-8" standalone="no"?>
<svg
   xmlns:dc="http://purl.org/dc/elements/1.1/"
   xmlns:cc="http://creativecommons.org/ns#"
   xmlns:rdf="http://www.w3.org/1999/02/22-rdf-syntax-ns#"
   xmlns:svg="http://www.w3.org/2000/svg"
   xmlns="http://www.w3.org/2000/svg"
   xmlns:sodipodi="http://sodipodi.sourceforge.net/DTD/sodipodi-0.dtd"
   xmlns:inkscape="http://www.inkscape.org/namespaces/inkscape"
   width="200"
   height="54"
   viewBox="0 0 200 54"
   fill="none"
   version="1.1"
   id="svg57"
   sodipodi:docname="amazonMusic.svg"
   inkscape:version="0.92.5 (2060ec1f9f, 2020-04-08)">
  <metadata
     id="metadata61">
    <rdf:RDF>
      <cc:Work
         rdf:about="">
        <dc:format>image/svg+xml</dc:format>
        <dc:type
           rdf:resource="http://purl.org/dc/dcmitype/StillImage" />
      </cc:Work>
    </rdf:RDF>
  </metadata>
  <sodipodi:namedview
     pagecolor="#ffffff"
     bordercolor="#666666"
     borderopacity="1"
     objecttolerance="10"
     gridtolerance="10"
     guidetolerance="10"
     inkscape:pageopacity="0"
     inkscape:pageshadow="2"
     inkscape:window-width="1294"
     inkscape:window-height="704"
     id="namedview59"
     showgrid="false"
     inkscape:zoom="3.78"
     inkscape:cx="100"
     inkscape:cy="27"
     inkscape:window-x="72"
     inkscape:window-y="27"
     inkscape:window-maximized="1"
     inkscape:current-layer="svg57"
     showguides="true"
     inkscape:guide-bbox="true" />
  <rect
     x="0.804443"
     width="198.646"
     height="53.7111"
     rx="4"
     id="rect2"
     style="fill:#ffffff;fill-opacity:1"
     fill="#0B091A" />
  <defs
     id="defs55">
    <linearGradient
       id="paint0_linear"
       x1="34.5495"
       y1="11.9358"
       x2="34.5495"
       y2="41.9699"
       gradientUnits="userSpaceOnUse">
      <stop
         stop-color="#F452FF"
         id="stop50" />
      <stop
         offset="1"
         stop-color="#832BC1"
         id="stop52" />
    </linearGradient>
  </defs>
  <path
     style="fill:#212b38;fill-opacity:1;fill-rule:evenodd;stroke-width:0.55067897"
     inkscape:connector-curvature="0"
     id="path4"
     d="m 77.079077,41.707732 c -3.733603,2.736874 -9.141271,4.196174 -13.805522,4.196174 -6.216223,0.0312 -12.2221,-2.24946 -16.850776,-6.39889 -0.352435,-0.313887 -0.03855,-0.743416 0.379968,-0.495611 5.142755,2.922467 10.957679,4.455906 16.872804,4.449486 4.130092,0 8.684207,-0.853552 12.863861,-2.621232 0.63328,-0.264326 1.161932,0.413009 0.545172,0.870073 z m 1.552915,-1.762173 c -0.479091,-0.605747 -3.155391,-0.29186 -4.355871,-0.148683 -0.368955,0.04405 -0.424023,-0.275339 -0.09361,-0.501118 2.136634,-1.49234 5.633445,-1.06281 6.040948,-0.561692 0.413009,0.501117 -0.110136,3.992422 -2.109101,5.660979 -0.30838,0.258819 -0.60024,0.12115 -0.46257,-0.220271 0.451557,-1.117879 1.459299,-3.623468 0.980209,-4.229215 z M 74.358723,28.750257 v -1.448286 c 0,-0.220271 0.165204,-0.368955 0.368955,-0.368955 h 6.536559 c 0.209258,0 0.374462,0.148684 0.374462,0.363449 v 1.244534 c 0,0.209258 -0.176217,0.484598 -0.495611,0.914127 l -3.381169,4.807426 c 1.255548,-0.02753 2.588191,0.159697 3.728096,0.798485 0.25882,0.143176 0.330408,0.357941 0.346928,0.567199 v 1.541901 c 0,0.220272 -0.236792,0.462571 -0.47909,0.330408 -2.170064,-1.107377 -4.740774,-1.101228 -6.905515,0.01652 -0.231285,0.121149 -0.468077,-0.121149 -0.468077,-0.335914 v -1.470313 c 0,-0.236792 0.0055,-0.638787 0.242299,-0.996729 l 3.926341,-5.605911 h -3.41421 c -0.209258,0 -0.379968,-0.143176 -0.385475,-0.363448 z m 12.907915,-2.004471 c 2.951639,0 4.548608,2.522109 4.548608,5.72706 0,3.094816 -1.762173,5.550844 -4.548608,5.550844 -2.896572,0 -4.471513,-2.52211 -4.471513,-5.66098 0,-3.160896 1.596969,-5.616924 4.471513,-5.616924 z m 0.01652,2.070553 c -1.464806,0 -1.558421,1.982443 -1.558421,3.226977 0,1.239028 -0.01652,3.887794 1.541901,3.887794 1.541901,0 1.613489,-2.136635 1.613489,-3.441744 0,-0.853552 -0.03855,-1.877815 -0.297366,-2.687312 -0.220272,-0.704869 -0.666322,-0.985715 -1.299603,-0.985715 z m -16.129387,8.970559 c -0.132163,0.110136 -0.374461,0.121149 -0.468077,0.04405 -0.682842,-0.523145 -1.139905,-1.321629 -1.139905,-1.321629 -1.090345,1.106864 -1.866802,1.442778 -3.282047,1.442778 -1.668557,0 -2.973666,-1.029769 -2.973666,-3.083802 -0.04621,-1.416923 0.802102,-2.710325 2.120114,-3.232485 1.079331,-0.473584 2.588191,-0.556186 3.73911,-0.688349 0,0 0.09361,-1.239027 -0.242299,-1.690583 -0.273589,-0.334124 -0.686174,-0.52314 -1.117878,-0.512128 -0.732403,0 -1.448286,0.396489 -1.591462,1.161933 -0.03855,0.22027 -0.198245,0.407501 -0.374462,0.385474 l -1.899842,-0.203751 c -0.200453,-0.02485 -0.337375,-0.215023 -0.297367,-0.413008 0.440543,-2.323866 2.549644,-3.028735 4.443979,-3.028735 0.969195,0 2.23025,0.25882 2.995694,0.985716 0.963688,0.897606 0.875579,2.09258 0.875579,3.403195 v 3.083802 c 0,0.925141 0.385476,1.332643 0.748924,1.828254 0.126656,0.181724 0.15419,0.396489 -0.0055,0.528652 -0.407503,0.335914 -1.530888,1.310616 -1.530888,1.310616 z M 69.1493,32.96295 v -0.42953 c -1.437272,0 -2.957146,0.308381 -2.957146,1.993458 0,0.853553 0.44605,1.431766 1.211494,1.431766 0.550679,0 1.057303,-0.341421 1.376697,-0.897607 C 69.16582,34.372688 69.1493,33.733901 69.1493,32.96295 Z m -24.064671,4.823948 c -0.126656,0.110136 -0.368955,0.121149 -0.46257,0.04405 -0.682842,-0.523145 -1.139906,-1.321629 -1.139906,-1.321629 -1.095851,1.106864 -1.866802,1.442778 -3.282046,1.442778 -1.674065,0 -2.973667,-1.029769 -2.973667,-3.083802 -0.04621,-1.416923 0.802102,-2.710325 2.120114,-3.232485 1.079331,-0.473584 2.588191,-0.556186 3.73911,-0.688349 0,0 0.09361,-1.239027 -0.242298,-1.690583 -0.273588,-0.334126 -0.686174,-0.523143 -1.117879,-0.512132 -0.73791,0 -1.448285,0.396489 -1.591462,1.161933 -0.03855,0.22027 -0.203751,0.407501 -0.374462,0.385474 l -1.905349,-0.203751 c -0.198201,-0.02772 -0.331908,-0.216927 -0.29186,-0.413008 0.435037,-2.323866 2.549644,-3.028735 4.44398,-3.028735 0.969195,0 2.230249,0.25882 2.995693,0.985716 0.963688,0.897606 0.870073,2.09258 0.870073,3.403195 v 3.083802 c 0,0.925141 0.385475,1.332643 0.748923,1.828254 0.126656,0.181724 0.15419,0.396489 -0.0055,0.528652 -0.407502,0.335914 -1.530887,1.310616 -1.530887,1.310616 z M 43.085664,32.96295 v -0.42953 c -1.437272,0 -2.957146,0.308381 -2.957146,1.993458 0,0.853553 0.440543,1.431766 1.211494,1.431766 0.550679,0 1.057304,-0.341421 1.376697,-0.897607 0.385476,-0.688349 0.368955,-1.327136 0.368955,-2.098087 z m 7.819642,-0.897607 v 5.374627 c 0,0.203751 -0.165204,0.368955 -0.374462,0.368955 H 48.5484 c -0.205915,0.0031 -0.374485,-0.163017 -0.374462,-0.368955 V 27.329505 c 0,-0.203751 0.165204,-0.368955 0.374462,-0.368955 h 1.855788 c 0.203751,0 0.368955,0.165204 0.368955,0.368955 v 1.294096 h 0.03855 c 0.484598,-1.277575 1.393218,-1.877815 2.615726,-1.877815 1.244534,0 2.020991,0.60024 2.582684,1.877815 0.410255,-1.154358 1.517786,-1.912728 2.742381,-1.877815 0.837032,0 1.745652,0.341421 2.301838,1.112371 0.633281,0.853552 0.501118,2.09258 0.501118,3.182924 v 6.404396 c 0,0.203751 -0.17071,0.363448 -0.385475,0.363448 h -1.982444 c -0.197336,-0.0059 -0.355083,-0.166045 -0.357942,-0.363448 v -5.380134 c 0,-0.429529 0.03855,-1.497846 -0.05507,-1.899842 -0.148683,-0.688348 -0.594733,-0.881085 -1.172946,-0.881085 -0.52614,0.0183 -0.991243,0.347114 -1.18396,0.837031 -0.203751,0.512131 -0.187231,1.365683 -0.187231,1.943896 v 5.380134 c 0,0.203751 -0.17071,0.363448 -0.385475,0.363448 h -1.982444 c -0.197336,-0.0059 -0.355082,-0.166045 -0.357941,-0.363448 v -5.380134 c 0,-1.134398 0.181724,-2.797448 -1.228014,-2.797448 -1.431766,0 -1.376698,1.618995 -1.376698,2.797448 z M 96.02794,37.43997 c 0,0.203751 -0.165204,0.368955 -0.368955,0.368955 h -1.987951 c -0.203768,0 -0.368955,-0.165187 -0.368955,-0.368955 V 27.329505 c 0,-0.203751 0.165204,-0.368955 0.368955,-0.368955 h 1.833761 c 0.220272,0 0.374462,0.170711 0.374462,0.286353 v 1.547408 h 0.03855 c 0.550679,-1.387711 1.332643,-2.048525 2.709341,-2.048525 0.8921,0 1.762172,0.319393 2.318362,1.194973 0.51764,0.815005 0.51764,2.180688 0.51764,3.160896 v 6.387876 c -0.0278,0.187176 -0.19081,0.324225 -0.37997,0.319394 h -1.993462 c -0.17869,-0.0086 -0.326333,-0.142411 -0.352434,-0.319394 v -6.134563 c 0,-2.048525 -0.787471,-2.1091 -1.244535,-2.1091 -0.528652,0 -0.958181,0.413009 -1.139905,0.792978 -0.249464,0.614505 -0.362209,1.27594 -0.330408,1.938389 z"
     sodipodi:nodetypes="cccccccccccccccccsssssccccsccssccsccssssssssscscccscccccccccscssccccscsscscccscccccccccscssccccscsscscssccssssccscccsssccscccsssccsscccsssssssccscsccccssccc" />
  <path
     style="fill:#212b38;fill-opacity:1;fill-rule:evenodd;stroke-width:0.45980886"
     inkscape:connector-curvature="0"
     id="path4-3"
     d="m 109.40531,37.56687 c -0.28508,0 -0.42763,-0.137943 -0.42763,-0.427623 v -9.973253 c 0,-0.285082 0.14255,-0.427623 0.42763,-0.427623 h 0.9518 c 0.13794,0 0.25289,0.03219 0.33106,0.08736 0.0781,0.05518 0.13335,0.165532 0.16094,0.321866 l 0.12874,0.680517 c 1.37483,-0.93801 2.71287,-1.407014 4.01414,-1.407014 1.33344,0 2.23467,0.505789 2.70827,1.517368 1.41621,-1.011579 2.83243,-1.517368 4.24864,-1.517368 0.98859,0 1.74727,0.275884 2.27605,0.827655 0.52878,0.560967 0.79547,1.351838 0.79547,2.372614 v 7.517874 c 0,0.285082 -0.14713,0.427623 -0.43221,0.427623 h -1.26448 c -0.28508,0 -0.43222,-0.137943 -0.43222,-0.427623 v -6.915524 c 0,-0.712705 -0.13794,-1.241484 -0.40464,-1.581743 -0.27588,-0.344857 -0.70351,-0.514986 -1.28746,-0.514986 -1.04837,0 -2.09673,0.321866 -3.15889,0.965598 0.0138,0.09656 0.023,0.202316 0.023,0.317269 v 7.729386 c 0,0.285082 -0.14254,0.427623 -0.42762,0.427623 h -1.26907 c -0.28509,0 -0.42763,-0.137943 -0.42763,-0.427623 v -6.915524 c 0,-0.712705 -0.13794,-1.241484 -0.40922,-1.581743 -0.27589,-0.344857 -0.70352,-0.514986 -1.28747,-0.514986 -1.08975,0 -2.13352,0.31267 -3.1359,0.942609 v 8.069644 c 0,0.285082 -0.13795,0.427623 -0.42762,0.427623 z m 21.81334,0.321866 c -1.01618,0 -1.79326,-0.285082 -2.34043,-0.855245 -0.54257,-0.570163 -0.81386,-1.374828 -0.81386,-2.413996 V 27.17519 c 0,-0.28968 0.13794,-0.432221 0.42762,-0.432221 h 1.26448 c 0.28968,0 0.43222,0.142541 0.43222,0.427622 v 6.772985 c 0,0.76788 0.14713,1.333445 0.45061,1.696695 0.29887,0.363248 0.78168,0.542574 1.4392,0.542574 1.02997,0 2.06914,-0.340258 3.1129,-1.025374 v -7.991477 c 0,-0.285082 0.13795,-0.427623 0.42762,-0.427623 h 1.26448 c 0.28968,0 0.43222,0.142541 0.43222,0.427623 v 9.977851 c 0,0.280484 -0.14254,0.423025 -0.43222,0.423025 h -0.91962 c -0.14254,0 -0.25749,-0.02759 -0.33566,-0.08276 -0.0782,-0.05978 -0.12874,-0.165532 -0.16093,-0.321867 l -0.14714,-0.74489 c -1.33345,0.979392 -2.69907,1.471387 -4.10149,1.471387 z m 12.19412,0 c -1.2047,0 -2.28524,-0.197718 -3.24164,-0.597752 -0.13613,-0.04661 -0.25803,-0.127349 -0.35406,-0.234502 -0.0644,-0.08736 -0.0966,-0.220709 -0.0966,-0.404632 V 36.0495 c 0,-0.257493 0.0828,-0.386239 0.25749,-0.386239 0.10116,0 0.27589,0.04598 0.53338,0.128746 0.94721,0.298876 1.9312,0.446015 2.94278,0.446015 0.7035,0 1.23689,-0.137943 1.60014,-0.404632 0.36784,-0.271287 0.54716,-0.662125 0.54716,-1.172512 0.0136,-0.313319 -0.1068,-0.617615 -0.33105,-0.836852 -0.35993,-0.28888 -0.77205,-0.505864 -1.2139,-0.639135 l -1.82544,-0.680517 c -1.59094,-0.583957 -2.38181,-1.581742 -2.38181,-2.988757 0,-0.928814 0.35865,-1.678302 1.08514,-2.243867 0.72191,-0.570163 1.66911,-0.855245 2.84163,-0.855245 0.93093,3.24e-4 1.85432,0.166939 2.72667,0.491995 0.17012,0.05518 0.29427,0.128747 0.36784,0.220709 0.069,0.09196 0.10575,0.229904 0.10575,0.413828 v 0.579359 c 0,0.257493 -0.092,0.386239 -0.27588,0.386239 -0.16947,-0.01324 -0.33644,-0.04881 -0.4966,-0.105756 -0.75868,-0.229904 -1.53116,-0.344856 -2.32202,-0.344856 -1.37024,0 -2.05995,0.464407 -2.05995,1.388622 0,0.367847 0.11495,0.662125 0.34485,0.873637 0.22991,0.21611 0.68052,0.450613 1.35184,0.708106 l 1.67371,0.643732 c 0.84605,0.321867 1.453,0.712704 1.82544,1.163316 0.37245,0.446015 0.55637,1.025374 0.55637,1.738078 0,1.011579 -0.37705,1.816245 -1.13573,2.413996 -0.75869,0.597752 -1.76567,0.896627 -3.02555,0.896627 z m 6.86955,-0.321866 c -0.28508,0 -0.43222,-0.137943 -0.43222,-0.427623 v -9.973253 c 0,-0.285082 0.14714,-0.427623 0.43222,-0.427623 h 1.26447 c 0.28508,0 0.43222,0.142541 0.43222,0.427623 v 9.977851 c 0,0.280484 -0.14714,0.423025 -0.43222,0.423025 z m 0.64374,-12.7505 c -0.41383,0 -0.7403,-0.114952 -0.9794,-0.349454 -0.24126,-0.247397 -0.36941,-0.583593 -0.35405,-0.928814 0,-0.38624 0.11954,-0.694312 0.35405,-0.928814 0.26441,-0.246823 0.61828,-0.374747 0.9794,-0.354053 0.41382,0 0.73568,0.119551 0.97479,0.354053 0.2391,0.229905 0.35405,0.542574 0.35405,0.928814 0,0.381641 -0.11495,0.689713 -0.35405,0.928814 -0.2345,0.229904 -0.56097,0.349454 -0.97479,0.349454 z m 8.97086,12.985002 c -1.6875,0 -2.97956,-0.478201 -3.87158,-1.439202 -0.89664,-0.965598 -1.34265,-2.354221 -1.34265,-4.175064 0,-1.807048 0.45981,-3.209465 1.38403,-4.198055 0.91962,-0.988589 2.23007,-1.485182 3.91757,-1.485182 0.77247,0 1.53116,0.137943 2.27605,0.40923 0.15633,0.05517 0.26669,0.124148 0.33106,0.211511 0.0644,0.08736 0.0966,0.229905 0.0966,0.427623 v 0.574761 c 0,0.285082 -0.092,0.427622 -0.27588,0.427622 -0.0736,0 -0.18392,-0.0184 -0.34486,-0.06437 -0.57963,-0.168735 -1.18037,-0.253892 -1.78406,-0.252894 -1.2001,0 -2.06914,0.298875 -2.59792,0.905823 -0.52877,0.606947 -0.79087,1.567948 -0.79087,2.896796 v 0.275885 c 0,1.292063 0.26669,2.243867 0.80467,2.850815 0.53797,0.602349 1.38402,0.905823 2.54274,0.905823 0.59776,0 1.24149,-0.09656 1.93119,-0.298876 0.16094,-0.04598 0.2667,-0.06437 0.32187,-0.06437 0.18393,0 0.28048,0.142541 0.28048,0.427622 v 0.57936 c 0,0.183923 -0.0276,0.321866 -0.0874,0.404631 -0.0552,0.08276 -0.17013,0.160934 -0.34026,0.229905 -0.70351,0.303474 -1.51737,0.450612 -2.45078,0.450612 z"
     sodipodi:nodetypes="ssssscccscscsssssscscsssssscscsssscsssssscscssssssscccscccssscscccccsccccssccssccccssccsssssssssscccccscsccscsccsssccssscscssscccc" />
  <g
     transform="matrix(3.955104,0,0,3.955104,-86.368847,-158.12316)"
     aria-label="Słuchaj w"
     style="font-style:normal;font-variant:normal;font-weight:normal;font-stretch:normal;font-size:4.59036207px;line-height:1.25;font-family:'Open Sans';-inkscape-font-specification:'Open Sans';letter-spacing:0px;word-spacing:0px;fill:#212b38;fill-opacity:1;stroke:none;stroke-width:0.28689763"
     id="text903-7">
    <path
       inkscape:connector-curvature="0"
       d="m 35.068867,44.308964 q 0,0.221897 -0.16026,0.349656 -0.159138,0.127759 -0.443794,0.127759 -0.262243,0 -0.463968,-0.09862 V 44.365 q 0.165863,0.07397 0.280174,0.104224 0.115431,0.03026 0.21069,0.03026 0.114311,0 0.174829,-0.04371 0.06164,-0.04371 0.06164,-0.130001 0,-0.04819 -0.0269,-0.08517 -0.0269,-0.0381 -0.07957,-0.07285 -0.05155,-0.03474 -0.211811,-0.110948 -0.150173,-0.0706 -0.22526,-0.135604 -0.07509,-0.065 -0.119914,-0.151294 -0.04483,-0.08629 -0.04483,-0.201725 0,-0.217414 0.146811,-0.341811 0.147932,-0.124397 0.407933,-0.124397 0.127759,0 0.24319,0.03026 0.116552,0.03026 0.243191,0.08517 l -0.11207,0.270087 q -0.131121,-0.05379 -0.217414,-0.07509 -0.08517,-0.02129 -0.168104,-0.02129 -0.09862,0 -0.151294,0.04595 -0.05267,0.04595 -0.05267,0.119914 0,0.04595 0.02129,0.08069 0.02129,0.03362 0.06724,0.06612 0.04707,0.03138 0.220777,0.114311 0.229742,0.109828 0.314915,0.220777 0.08517,0.109828 0.08517,0.270087 z"
       style="font-style:normal;font-variant:normal;font-weight:bold;font-stretch:normal;font-size:2.29518104px;font-family:'Open Sans';-inkscape-font-specification:'Open Sans Bold';fill:#212b38;fill-opacity:1;stroke-width:0.28689763"
       id="path968-5" />
    <path
       inkscape:connector-curvature="0"
       d="m 35.707662,43.72172 0.07845,-0.04819 0.131121,0.220777 -0.20957,0.125518 v 0.744141 H 35.36585 v -0.534571 l -0.07957,0.04819 -0.126638,-0.220776 0.206207,-0.125518 v -0.911124 h 0.341812 z"
       style="font-style:normal;font-variant:normal;font-weight:bold;font-stretch:normal;font-size:2.29518104px;font-family:'Open Sans';-inkscape-font-specification:'Open Sans Bold';fill:#212b38;fill-opacity:1;stroke-width:0.28689763"
       id="path970-3" />
    <path
       inkscape:connector-curvature="0"
       d="m 36.984132,44.763966 -0.04595,-0.16026 h -0.01793 q -0.05491,0.08742 -0.155777,0.135604 -0.100862,0.04707 -0.229742,0.04707 -0.220777,0 -0.332846,-0.117672 -0.112069,-0.118794 -0.112069,-0.340691 V 43.51103 h 0.341811 v 0.731813 q 0,0.135604 0.04819,0.203966 0.04819,0.06724 0.153535,0.06724 0.143449,0 0.207329,-0.09526 0.06388,-0.09638 0.06388,-0.318277 V 43.51103 h 0.341812 v 1.252936 z"
       style="font-style:normal;font-variant:normal;font-weight:bold;font-stretch:normal;font-size:2.29518104px;font-family:'Open Sans';-inkscape-font-specification:'Open Sans Bold';fill:#212b38;fill-opacity:1;stroke-width:0.28689763"
       id="path972-5" />
    <path
       d="m 38.065724,44.786379 q -0.585002,0 -0.585002,-0.642157 0,-0.319398 0.159138,-0.487502 0.159139,-0.169225 0.456123,-0.169225 0.217414,0 0.390001,0.08517 l -0.100862,0.264484 q -0.08069,-0.0325 -0.150173,-0.05267 -0.06948,-0.02129 -0.138966,-0.02129 -0.266725,0 -0.266725,0.378795 0,0.367587 0.266725,0.367587 0.09862,0 0.182673,-0.02578 0.08405,-0.0269 0.168104,-0.08293 v 0.292501 q -0.08293,0.05267 -0.168104,0.07285 -0.08405,0.02017 -0.212932,0.02017 z"
       style="font-style:normal;font-variant:normal;font-weight:bold;font-stretch:normal;font-size:2.29518104px;font-family:'Open Sans';-inkscape-font-specification:'Open Sans Bold';fill:#212b38;fill-opacity:1;stroke-width:0.28689763"
       id="path974-6"
       inkscape:connector-curvature="0" />
    <path
       d="m 39.893575,44.763966 h -0.341811 v -0.731813 q 0,-0.271208 -0.201725,-0.271208 -0.143449,0 -0.207328,0.0975 -0.06388,0.0975 -0.06388,0.316036 v 0.589485 h -0.341812 v -1.7438 h 0.341812 v 0.35526 q 0,0.04147 -0.0078,0.195001 l -0.0078,0.100862 h 0.01793 q 0.114311,-0.183794 0.363105,-0.183794 0.220777,0 0.335088,0.118794 0.11431,0.118793 0.11431,0.340691 z"
       style="font-style:normal;font-variant:normal;font-weight:bold;font-stretch:normal;font-size:2.29518104px;font-family:'Open Sans';-inkscape-font-specification:'Open Sans Bold';fill:#212b38;fill-opacity:1;stroke-width:0.28689763"
       id="path976-2"
       inkscape:connector-curvature="0" />
    <path
       d="m 41.017132,44.763966 -0.06612,-0.170346 h -0.009 q -0.08629,0.108707 -0.178191,0.151294 -0.09078,0.04146 -0.237587,0.04146 -0.180431,0 -0.284656,-0.103103 -0.103104,-0.103104 -0.103104,-0.293622 0,-0.199484 0.138966,-0.293622 0.140087,-0.09526 0.421381,-0.105345 l 0.217415,-0.0067 v -0.05491 q 0,-0.190518 -0.195001,-0.190518 -0.150173,0 -0.353018,0.09078 l -0.113191,-0.230863 q 0.216294,-0.11319 0.479657,-0.11319 0.252157,0 0.38664,0.109828 0.134483,0.109828 0.134483,0.333967 v 0.834917 z m -0.100862,-0.58052 -0.132242,0.0045 q -0.149052,0.0045 -0.221897,0.05379 -0.07285,0.04931 -0.07285,0.150173 0,0.14457 0.165863,0.14457 0.118794,0 0.189397,-0.06836 0.07173,-0.06836 0.07173,-0.181552 z"
       style="font-style:normal;font-variant:normal;font-weight:bold;font-stretch:normal;font-size:2.29518104px;font-family:'Open Sans';-inkscape-font-specification:'Open Sans Bold';fill:#212b38;fill-opacity:1;stroke-width:0.28689763"
       id="path978-9"
       inkscape:connector-curvature="0" />
    <path
       d="m 41.506875,45.315347 q -0.131121,0 -0.225259,-0.02802 V 45.01836 q 0.07845,0.02129 0.160259,0.02129 0.08629,0 0.125518,-0.04819 0.04035,-0.04819 0.04035,-0.142328 V 43.51103 h 0.341811 v 1.38854 q 0,0.199483 -0.115431,0.30707 -0.115431,0.108707 -0.327243,0.108707 z m 0.08629,-2.128198 q 0,-0.166983 0.186035,-0.166983 0.186035,0 0.186035,0.166983 0,0.07957 -0.04707,0.124397 -0.04595,0.04371 -0.138966,0.04371 -0.186035,0 -0.186035,-0.168104 z"
       style="font-style:normal;font-variant:normal;font-weight:bold;font-stretch:normal;font-size:2.29518104px;font-family:'Open Sans';-inkscape-font-specification:'Open Sans Bold';fill:#212b38;fill-opacity:1;stroke-width:0.28689763"
       id="path980-1"
       inkscape:connector-curvature="0" />
    <path
       inkscape:connector-curvature="0"
       d="m 44.0064,44.763966 -0.09638,-0.438192 -0.130001,-0.553622 h -0.0078 l -0.228621,0.991814 H 43.175966 L 42.819585,43.51103 h 0.340691 l 0.14457,0.554743 q 0.03474,0.149053 0.0706,0.411295 h 0.0067 q 0.0045,-0.08517 0.03922,-0.270087 l 0.01793,-0.09526 0.154656,-0.600692 h 0.376553 l 0.146811,0.600692 q 0.0045,0.02466 0.01345,0.07285 0.01009,0.04819 0.01905,0.103104 0.009,0.05379 0.01569,0.106466 0.0078,0.05155 0.009,0.08293 h 0.0067 q 0.01009,-0.08069 0.03586,-0.220777 0.02578,-0.141207 0.03698,-0.190518 l 0.150173,-0.554743 h 0.335087 l -0.360863,1.252936 z"
       style="font-style:normal;font-variant:normal;font-weight:bold;font-stretch:normal;font-size:2.29518104px;font-family:'Open Sans';-inkscape-font-specification:'Open Sans Bold';fill:#212b38;fill-opacity:1;stroke-width:0.28689763"
       id="path982-2" />
  </g>
</svg>
