<?xml version="1.0" encoding="UTF-8" standalone="no"?>
<svg
   xmlns:dc="http://purl.org/dc/elements/1.1/"
   xmlns:cc="http://creativecommons.org/ns#"
   xmlns:rdf="http://www.w3.org/1999/02/22-rdf-syntax-ns#"
   xmlns:svg="http://www.w3.org/2000/svg"
   xmlns="http://www.w3.org/2000/svg"
   xmlns:sodipodi="http://sodipodi.sourceforge.net/DTD/sodipodi-0.dtd"
   xmlns:inkscape="http://www.inkscape.org/namespaces/inkscape"
   width="200"
   height="54"
   viewBox="0 0 200 54"
   fill="none"
   version="1.1"
   id="svg57"
   sodipodi:docname="apple.svg"
   inkscape:version="0.92.5 (2060ec1f9f, 2020-04-08)">
  <metadata
     id="metadata61">
    <rdf:RDF>
      <cc:Work
         rdf:about="">
        <dc:format>image/svg+xml</dc:format>
        <dc:type
           rdf:resource="http://purl.org/dc/dcmitype/StillImage" />
      </cc:Work>
    </rdf:RDF>
  </metadata>
  <sodipodi:namedview
     pagecolor="#ffffff"
     bordercolor="#666666"
     borderopacity="1"
     objecttolerance="10"
     gridtolerance="10"
     guidetolerance="10"
     inkscape:pageopacity="0"
     inkscape:pageshadow="2"
     inkscape:window-width="1294"
     inkscape:window-height="704"
     id="namedview59"
     showgrid="false"
     inkscape:zoom="9.8146421"
     inkscape:cx="62.501324"
     inkscape:cy="31.159952"
     inkscape:window-x="72"
     inkscape:window-y="27"
     inkscape:window-maximized="1"
     inkscape:current-layer="svg57" />
  <rect
     x="0.804443"
     width="198.646"
     height="53.7111"
     rx="4"
     id="rect2"
     style="fill:#ffffff;fill-opacity:1"
     fill="#0B091A" />
  <path
     fill-rule="evenodd"
     clip-rule="evenodd"
     d="M48.9453 37.9676C48.6539 38.7092 47.9815 39.7533 47.028 40.4888C46.4775 40.9136 45.8202 41.3196 44.9174 41.5876C43.9551 41.8733 42.7697 41.9699 41.2943 41.9699H27.8046C26.3294 41.9699 25.144 41.8733 24.1815 41.5876C23.2787 41.3196 22.6216 40.9136 22.071 40.4888C21.1175 39.7532 20.445 38.7092 20.1536 37.9676C19.5667 36.4735 19.5607 34.7782 19.5607 33.7106V20.1952C19.5607 19.1275 19.5667 17.4323 20.1536 15.9381C20.445 15.1966 21.1174 14.1524 22.071 13.4169C22.6215 12.9921 23.2787 12.5861 24.1815 12.3181C25.1439 12.0324 26.3292 11.9358 27.8046 11.9358H41.2945C42.7697 11.9358 43.9551 12.0324 44.9175 12.3181C45.8203 12.5861 46.4775 12.9923 47.0281 13.4169C47.9815 14.1525 48.654 15.1966 48.9454 15.9381C49.5324 17.4323 49.5383 19.1275 49.5383 20.1952V33.7106C49.5382 34.7781 49.5323 36.4733 48.9453 37.9676Z"
     fill="url(#paint0_linear)"
     id="path4" />
  <path
     d="M36.7236 29.1988C36.2737 28.7233 35.4836 28.4184 34.551 28.4184C33.6181 28.4184 32.8281 28.7233 32.3782 29.1988C32.1435 29.4469 32.0194 29.7013 31.9803 30.0637C31.9045 30.7654 31.9471 31.3696 32.0291 32.3355C32.1073 33.256 32.2557 34.4835 32.4494 35.7336C32.5873 36.6233 32.6993 37.1035 32.8012 37.4474C32.9666 38.0047 33.5845 38.492 34.551 38.492C35.5172 38.492 36.1352 38.0045 36.3005 37.4474C36.4025 37.1035 36.5145 36.6233 36.6523 35.7336C36.846 34.4835 36.9945 33.256 37.0726 32.3355C37.1547 31.3694 37.1972 30.7652 37.1215 30.0637C37.0824 29.7014 36.9583 29.4469 36.7236 29.1988ZM32.0999 24.9648C32.0999 26.3223 33.1983 27.4227 34.5532 27.4227C35.9082 27.4227 37.0066 26.3223 37.0066 24.9648C37.0066 23.6072 35.9082 22.5067 34.5532 22.5067C33.1983 22.5067 32.0999 23.6072 32.0999 24.9648ZM34.5228 15.2646C28.785 15.2809 24.0835 19.9446 24.0125 25.6929C23.9548 30.3494 26.9217 34.3326 31.0645 35.7926C31.1651 35.8281 31.2672 35.7444 31.2513 35.6388C31.197 35.2772 31.1458 34.9139 31.0987 34.5567C31.082 34.4304 31.0017 34.3215 30.8854 34.2706C27.6109 32.8373 25.3244 29.5471 25.361 25.7359C25.4092 20.7343 29.4857 16.6568 34.4778 16.6163C39.5813 16.575 43.7463 20.7225 43.7463 25.8262C43.7463 29.5992 41.4698 32.8491 38.2208 34.2709C38.1044 34.3219 38.0246 34.4311 38.0081 34.5572C37.961 34.9144 37.9098 35.2776 37.8556 35.6388C37.8396 35.7444 37.9417 35.8281 38.0423 35.7927C42.1455 34.3467 45.0952 30.4254 45.0952 25.8263C45.0949 19.9922 40.3495 15.2479 34.5228 15.2646ZM34.3323 20.1099C37.585 19.9837 40.2712 22.5982 40.2712 25.8294C40.2712 27.4728 39.5763 28.9564 38.4657 30.0012C38.3714 30.0898 38.3208 30.2156 38.3281 30.3449C38.3502 30.7379 38.3421 31.1199 38.316 31.5512C38.309 31.6662 38.4377 31.7396 38.5326 31.6748C40.3951 30.3995 41.6202 28.2553 41.6202 25.8294C41.6202 21.8352 38.2995 18.6034 34.2788 18.7595C30.5424 18.9046 27.5446 21.9911 27.4967 25.7373C27.4653 28.2011 28.6978 30.3838 30.5843 31.675C30.679 31.7398 30.8073 31.6663 30.8003 31.5515C30.7741 31.1199 30.7661 30.7379 30.7881 30.3449C30.7954 30.2157 30.7449 30.0899 30.6509 30.0015C29.5056 28.9241 28.8022 27.3802 28.847 25.6758C28.9259 22.6763 31.3396 20.226 34.3323 20.1099Z"
     fill="white"
     id="path6" />
  <path
     d="M65.4672 33.9771H60.5133L59.3236 37.4965H57.2253L61.9176 24.4744H64.0976L68.7899 37.4965H66.6558L65.4672 33.9771ZM61.0263 32.3529H64.9531L63.0173 26.6401H62.9631L61.0263 32.3529Z"
     fill="white"
     id="path8"
     style="fill:#212b38;fill-opacity:1" />
  <path
     d="M78.9236 32.7503C78.9236 35.7004 77.3475 37.5958 74.9693 37.5958C73.6192 37.5958 72.5469 36.9907 71.988 35.9349H71.943V40.6371H69.998V28.0031H71.8806V29.5821H71.9164C72.457 28.5632 73.61 27.9038 74.9335 27.9038C77.3383 27.9038 78.9236 29.8084 78.9236 32.7503ZM76.9244 32.7503C76.9244 30.8282 75.933 29.5646 74.4203 29.5646C72.9343 29.5646 71.9347 30.8549 71.9347 32.7503C71.9347 34.6631 72.9343 35.9441 74.4203 35.9441C75.9331 35.9441 76.9244 34.6898 76.9244 32.7503Z"
     fill="white"
     id="path10"
     style="fill:#212b38;fill-opacity:1" />
  <path
     d="M89.3527 32.7503C89.3527 35.7004 87.7766 37.5958 85.3984 37.5958C84.0482 37.5958 82.9761 36.9907 82.417 35.9349H82.372V40.6371H80.427V28.0031H82.3097V29.5821H82.3454C82.8861 28.5632 84.039 27.9038 85.3626 27.9038C87.7675 27.9038 89.3527 29.8084 89.3527 32.7503ZM87.3536 32.7503C87.3536 30.8282 86.3622 29.5646 84.8495 29.5646C83.3635 29.5646 82.3639 30.8549 82.3639 32.7503C82.3639 34.6631 83.3635 35.9441 84.8495 35.9441C86.3622 35.9441 87.3536 34.6898 87.3536 32.7503Z"
     fill="white"
     id="path12"
     style="fill:#212b38;fill-opacity:1" />
  <path
     d="M90.9277 24.4745H92.8737V37.4965H90.9277V24.4745Z"
     fill="white"
     id="path14"
     style="fill:#212b38;fill-opacity:1" />
  <path
     d="M103 34.7081C102.739 36.4316 101.063 37.6142 98.9203 37.6142C96.1638 37.6142 94.4528 35.7639 94.4528 32.7953C94.4528 29.8176 96.173 27.8864 98.8384 27.8864C101.46 27.8864 103.109 29.6906 103.109 32.569V33.2367H96.4162V33.3544C96.4162 34.9785 97.4342 36.0435 98.9652 36.0435C100.045 36.0435 100.893 35.5295 101.153 34.7082H103V34.7081ZM96.4253 31.8748H101.163C101.118 30.4218 100.19 29.4653 98.8384 29.4653C97.4965 29.4653 96.5245 30.4401 96.4253 31.8748Z"
     fill="white"
     id="path16"
     style="fill:#212b38;fill-opacity:1" />
  <path
     d="M113.468 24.4745C115.99 24.4745 117.747 26.2162 117.747 28.7527C117.747 31.2974 115.954 33.0473 113.405 33.0473H110.613V37.4966H108.595V24.4745H113.468ZM110.613 31.3516H112.928C114.683 31.3516 115.683 30.4034 115.683 28.7619C115.683 27.1195 114.683 26.18 112.937 26.18H110.613V31.3516Z"
     fill="white"
     id="path18"
     style="fill:#212b38;fill-opacity:1" />
  <path
     d="M118.457 32.7502C118.457 29.7633 120.213 27.8862 122.951 27.8862C125.698 27.8862 127.446 29.7632 127.446 32.7502C127.446 35.7454 125.707 37.6142 122.951 37.6142C120.195 37.6142 118.457 35.7455 118.457 32.7502ZM125.464 32.7502C125.464 30.7012 124.527 29.4919 122.951 29.4919C121.375 29.4919 120.438 30.7104 120.438 32.7502C120.438 34.8074 121.375 36.0075 122.951 36.0075C124.527 36.0075 125.464 34.8075 125.464 32.7502Z"
     fill="white"
     id="path20"
     style="fill:#212b38;fill-opacity:1" />
  <path
     d="M128.811 32.7503C128.811 29.8175 130.423 27.9037 132.774 27.9037C134.134 27.9037 135.206 28.5354 135.746 29.582H135.783V24.4743H137.737V37.4964H135.845V35.8816H135.809C135.251 36.9639 134.17 37.5958 132.792 37.5958C130.423 37.5958 128.811 35.683 128.811 32.7503ZM130.801 32.7503C130.801 34.6989 131.793 35.9441 133.305 35.9441C134.801 35.9441 135.8 34.6805 135.8 32.7503C135.8 30.8364 134.801 29.5646 133.305 29.5646C131.793 29.5647 130.801 30.819 130.801 32.7503Z"
     fill="white"
     id="path22"
     style="fill:#212b38;fill-opacity:1" />
  <path
     d="M146.014 31.2696C145.843 30.2681 145.059 29.5196 143.78 29.5196C142.285 29.5196 141.294 30.774 141.294 32.7503C141.294 34.7717 142.294 35.9893 143.798 35.9893C145.005 35.9893 145.798 35.3851 146.014 34.2843H147.887C147.671 36.278 146.077 37.6143 143.78 37.6143C141.078 37.6143 139.313 35.764 139.313 32.7503C139.313 29.7992 141.078 27.8864 143.762 27.8864C146.193 27.8864 147.707 29.4203 147.87 31.2697H146.014V31.2696Z"
     fill="white"
     id="path24"
     style="fill:#212b38;fill-opacity:1" />
  <path
     d="M149.079 34.7983C149.079 33.1384 150.348 32.1359 152.6 32.0007L155.194 31.8563V31.1344C155.194 30.0787 154.501 29.4827 153.321 29.4827C152.24 29.4827 151.484 29.9977 151.33 30.819H149.511C149.565 29.1038 151.159 27.8862 153.375 27.8862C155.635 27.8862 157.131 29.1222 157.131 30.99V37.4965H155.266V35.9348H155.221C154.672 36.9905 153.474 37.6592 152.231 37.6592C150.376 37.6593 149.079 36.5042 149.079 34.7983ZM155.194 33.9412V33.21L152.862 33.3544C151.699 33.4271 151.042 33.932 151.042 34.744C151.042 35.5744 151.727 36.1161 152.772 36.1161C154.132 36.1161 155.194 35.1771 155.194 33.9412Z"
     fill="white"
     id="path26"
     style="fill:#212b38;fill-opacity:1" />
  <path
     d="M162.56 27.8956C164.659 27.8956 166.163 29.0589 166.208 30.7372H164.379C164.298 29.8985 163.587 29.3845 162.506 29.3845C161.452 29.3845 160.75 29.871 160.75 30.6113C160.75 31.1796 161.218 31.5584 162.2 31.8021L163.794 32.1728C165.704 32.6326 166.424 33.3361 166.424 34.7266C166.424 36.4408 164.803 37.6142 162.488 37.6142C160.254 37.6142 158.751 36.4673 158.607 34.7348H160.533C160.669 35.6461 161.398 36.1335 162.578 36.1335C163.74 36.1335 164.47 35.6553 164.47 34.8976C164.47 34.3108 164.109 33.9954 163.119 33.7425L161.425 33.3278C159.713 32.912 158.849 32.0366 158.849 30.7197C158.849 29.0413 160.353 27.8956 162.56 27.8956Z"
     fill="white"
     id="path28"
     style="fill:#212b38;fill-opacity:1" />
  <path
     d="M170.65 25.7559V28.0031H172.452V29.5463H170.65V34.7799C170.65 35.5929 171.011 35.9718 171.803 35.9718C172.002 35.9718 172.317 35.9441 172.443 35.9267V37.4606C172.227 37.515 171.795 37.5507 171.363 37.5507C169.444 37.5507 168.696 36.8288 168.696 34.9877V29.5462H167.318V28.0031H168.696V25.7559H170.65Z"
     fill="white"
     id="path30"
     style="fill:#212b38;fill-opacity:1" />
  <path
     d="M177.682 27.8956C179.782 27.8956 181.285 29.0589 181.33 30.7372H179.502C179.421 29.8985 178.709 29.3845 177.628 29.3845C176.574 29.3845 175.872 29.871 175.872 30.6113C175.872 31.1796 176.34 31.5584 177.323 31.8021L178.917 32.1728C180.826 32.6326 181.547 33.3361 181.547 34.7266C181.547 36.4408 179.926 37.6142 177.611 37.6142C175.376 37.6142 173.873 36.4673 173.729 34.7348H175.655C175.791 35.6461 176.52 36.1335 177.701 36.1335C178.863 36.1335 179.592 35.6553 179.592 34.8976C179.592 34.3108 179.232 33.9954 178.241 33.7425L176.548 33.3278C174.836 32.912 173.971 32.0366 173.971 30.7197C173.971 29.0413 175.476 27.8956 177.682 27.8956Z"
     fill="white"
     id="path32"
     style="fill:#212b38;fill-opacity:1" />
  <defs
     id="defs55">
    <linearGradient
       id="paint0_linear"
       x1="34.5495"
       y1="11.9358"
       x2="34.5495"
       y2="41.9699"
       gradientUnits="userSpaceOnUse">
      <stop
         stop-color="#F452FF"
         id="stop50" />
      <stop
         offset="1"
         stop-color="#832BC1"
         id="stop52" />
    </linearGradient>
  </defs>
  <g
     transform="matrix(3.955104,0,0,3.955104,-77.409618,-157.78418)"
     aria-label="Słuchaj w"
     style="font-style:normal;font-variant:normal;font-weight:normal;font-stretch:normal;font-size:4.59036207px;line-height:1.25;font-family:'Open Sans';-inkscape-font-specification:'Open Sans';letter-spacing:0px;word-spacing:0px;fill:#212b38;fill-opacity:1;stroke:none;stroke-width:0.28689763"
     id="text903">
    <path
       inkscape:connector-curvature="0"
       d="m 35.068867,44.308964 q 0,0.221897 -0.16026,0.349656 -0.159138,0.127759 -0.443794,0.127759 -0.262243,0 -0.463968,-0.09862 V 44.365 q 0.165863,0.07397 0.280174,0.104224 0.115431,0.03026 0.21069,0.03026 0.114311,0 0.174829,-0.04371 0.06164,-0.04371 0.06164,-0.130001 0,-0.04819 -0.0269,-0.08517 -0.0269,-0.0381 -0.07957,-0.07285 -0.05155,-0.03474 -0.211811,-0.110948 -0.150173,-0.0706 -0.22526,-0.135604 -0.07509,-0.065 -0.119914,-0.151294 -0.04483,-0.08629 -0.04483,-0.201725 0,-0.217414 0.146811,-0.341811 0.147932,-0.124397 0.407933,-0.124397 0.127759,0 0.24319,0.03026 0.116552,0.03026 0.243191,0.08517 l -0.11207,0.270087 q -0.131121,-0.05379 -0.217414,-0.07509 -0.08517,-0.02129 -0.168104,-0.02129 -0.09862,0 -0.151294,0.04595 -0.05267,0.04595 -0.05267,0.119914 0,0.04595 0.02129,0.08069 0.02129,0.03362 0.06724,0.06612 0.04707,0.03138 0.220777,0.114311 0.229742,0.109828 0.314915,0.220777 0.08517,0.109828 0.08517,0.270087 z"
       style="font-style:normal;font-variant:normal;font-weight:bold;font-stretch:normal;font-size:2.29518104px;font-family:'Open Sans';-inkscape-font-specification:'Open Sans Bold';fill:#212b38;fill-opacity:1;stroke-width:0.28689763"
       id="path968" />
    <path
       inkscape:connector-curvature="0"
       d="m 35.707662,43.72172 0.07845,-0.04819 0.131121,0.220777 -0.20957,0.125518 v 0.744141 H 35.36585 v -0.534571 l -0.07957,0.04819 -0.126638,-0.220776 0.206207,-0.125518 v -0.911124 h 0.341812 z"
       style="font-style:normal;font-variant:normal;font-weight:bold;font-stretch:normal;font-size:2.29518104px;font-family:'Open Sans';-inkscape-font-specification:'Open Sans Bold';fill:#212b38;fill-opacity:1;stroke-width:0.28689763"
       id="path970" />
    <path
       inkscape:connector-curvature="0"
       d="m 36.984132,44.763966 -0.04595,-0.16026 h -0.01793 q -0.05491,0.08742 -0.155777,0.135604 -0.100862,0.04707 -0.229742,0.04707 -0.220777,0 -0.332846,-0.117672 -0.112069,-0.118794 -0.112069,-0.340691 V 43.51103 h 0.341811 v 0.731813 q 0,0.135604 0.04819,0.203966 0.04819,0.06724 0.153535,0.06724 0.143449,0 0.207329,-0.09526 0.06388,-0.09638 0.06388,-0.318277 V 43.51103 h 0.341812 v 1.252936 z"
       style="font-style:normal;font-variant:normal;font-weight:bold;font-stretch:normal;font-size:2.29518104px;font-family:'Open Sans';-inkscape-font-specification:'Open Sans Bold';fill:#212b38;fill-opacity:1;stroke-width:0.28689763"
       id="path972" />
    <path
       d="m 38.065724,44.786379 q -0.585002,0 -0.585002,-0.642157 0,-0.319398 0.159138,-0.487502 0.159139,-0.169225 0.456123,-0.169225 0.217414,0 0.390001,0.08517 l -0.100862,0.264484 q -0.08069,-0.0325 -0.150173,-0.05267 -0.06948,-0.02129 -0.138966,-0.02129 -0.266725,0 -0.266725,0.378795 0,0.367587 0.266725,0.367587 0.09862,0 0.182673,-0.02578 0.08405,-0.0269 0.168104,-0.08293 v 0.292501 q -0.08293,0.05267 -0.168104,0.07285 -0.08405,0.02017 -0.212932,0.02017 z"
       style="font-style:normal;font-variant:normal;font-weight:bold;font-stretch:normal;font-size:2.29518104px;font-family:'Open Sans';-inkscape-font-specification:'Open Sans Bold';fill:#212b38;fill-opacity:1;stroke-width:0.28689763"
       id="path974"
       inkscape:connector-curvature="0" />
    <path
       d="m 39.893575,44.763966 h -0.341811 v -0.731813 q 0,-0.271208 -0.201725,-0.271208 -0.143449,0 -0.207328,0.0975 -0.06388,0.0975 -0.06388,0.316036 v 0.589485 h -0.341812 v -1.7438 h 0.341812 v 0.35526 q 0,0.04147 -0.0078,0.195001 l -0.0078,0.100862 h 0.01793 q 0.114311,-0.183794 0.363105,-0.183794 0.220777,0 0.335088,0.118794 0.11431,0.118793 0.11431,0.340691 z"
       style="font-style:normal;font-variant:normal;font-weight:bold;font-stretch:normal;font-size:2.29518104px;font-family:'Open Sans';-inkscape-font-specification:'Open Sans Bold';fill:#212b38;fill-opacity:1;stroke-width:0.28689763"
       id="path976"
       inkscape:connector-curvature="0" />
    <path
       d="m 41.017132,44.763966 -0.06612,-0.170346 h -0.009 q -0.08629,0.108707 -0.178191,0.151294 -0.09078,0.04146 -0.237587,0.04146 -0.180431,0 -0.284656,-0.103103 -0.103104,-0.103104 -0.103104,-0.293622 0,-0.199484 0.138966,-0.293622 0.140087,-0.09526 0.421381,-0.105345 l 0.217415,-0.0067 v -0.05491 q 0,-0.190518 -0.195001,-0.190518 -0.150173,0 -0.353018,0.09078 l -0.113191,-0.230863 q 0.216294,-0.11319 0.479657,-0.11319 0.252157,0 0.38664,0.109828 0.134483,0.109828 0.134483,0.333967 v 0.834917 z m -0.100862,-0.58052 -0.132242,0.0045 q -0.149052,0.0045 -0.221897,0.05379 -0.07285,0.04931 -0.07285,0.150173 0,0.14457 0.165863,0.14457 0.118794,0 0.189397,-0.06836 0.07173,-0.06836 0.07173,-0.181552 z"
       style="font-style:normal;font-variant:normal;font-weight:bold;font-stretch:normal;font-size:2.29518104px;font-family:'Open Sans';-inkscape-font-specification:'Open Sans Bold';fill:#212b38;fill-opacity:1;stroke-width:0.28689763"
       id="path978"
       inkscape:connector-curvature="0" />
    <path
       d="m 41.506875,45.315347 q -0.131121,0 -0.225259,-0.02802 V 45.01836 q 0.07845,0.02129 0.160259,0.02129 0.08629,0 0.125518,-0.04819 0.04035,-0.04819 0.04035,-0.142328 V 43.51103 h 0.341811 v 1.38854 q 0,0.199483 -0.115431,0.30707 -0.115431,0.108707 -0.327243,0.108707 z m 0.08629,-2.128198 q 0,-0.166983 0.186035,-0.166983 0.186035,0 0.186035,0.166983 0,0.07957 -0.04707,0.124397 -0.04595,0.04371 -0.138966,0.04371 -0.186035,0 -0.186035,-0.168104 z"
       style="font-style:normal;font-variant:normal;font-weight:bold;font-stretch:normal;font-size:2.29518104px;font-family:'Open Sans';-inkscape-font-specification:'Open Sans Bold';fill:#212b38;fill-opacity:1;stroke-width:0.28689763"
       id="path980"
       inkscape:connector-curvature="0" />
    <path
       inkscape:connector-curvature="0"
       d="m 44.0064,44.763966 -0.09638,-0.438192 -0.130001,-0.553622 h -0.0078 l -0.228621,0.991814 H 43.175966 L 42.819585,43.51103 h 0.340691 l 0.14457,0.554743 q 0.03474,0.149053 0.0706,0.411295 h 0.0067 q 0.0045,-0.08517 0.03922,-0.270087 l 0.01793,-0.09526 0.154656,-0.600692 h 0.376553 l 0.146811,0.600692 q 0.0045,0.02466 0.01345,0.07285 0.01009,0.04819 0.01905,0.103104 0.009,0.05379 0.01569,0.106466 0.0078,0.05155 0.009,0.08293 h 0.0067 q 0.01009,-0.08069 0.03586,-0.220777 0.02578,-0.141207 0.03698,-0.190518 l 0.150173,-0.554743 h 0.335087 l -0.360863,1.252936 z"
       style="font-style:normal;font-variant:normal;font-weight:bold;font-stretch:normal;font-size:2.29518104px;font-family:'Open Sans';-inkscape-font-specification:'Open Sans Bold';fill:#212b38;fill-opacity:1;stroke-width:0.28689763"
       id="path982" />
  </g>
</svg>
