<?xml version="1.0" encoding="UTF-8" standalone="no"?>
<svg
   xmlns:dc="http://purl.org/dc/elements/1.1/"
   xmlns:cc="http://creativecommons.org/ns#"
   xmlns:rdf="http://www.w3.org/1999/02/22-rdf-syntax-ns#"
   xmlns:svg="http://www.w3.org/2000/svg"
   xmlns="http://www.w3.org/2000/svg"
   xmlns:sodipodi="http://sodipodi.sourceforge.net/DTD/sodipodi-0.dtd"
   xmlns:inkscape="http://www.inkscape.org/namespaces/inkscape"
   width="199"
   height="54"
   viewBox="0 0 199 54"
   fill="none"
   version="1.1"
   id="svg76"
   sodipodi:docname="google.svg"
   inkscape:version="0.92.5 (2060ec1f9f, 2020-04-08)">
  <metadata
     id="metadata82">
    <rdf:RDF>
      <cc:Work
         rdf:about="">
        <dc:format>image/svg+xml</dc:format>
        <dc:type
           rdf:resource="http://purl.org/dc/dcmitype/StillImage" />
      </cc:Work>
    </rdf:RDF>
  </metadata>
  <defs
     id="defs80" />
  <sodipodi:namedview
     pagecolor="#ffffff"
     bordercolor="#666666"
     borderopacity="1"
     objecttolerance="10"
     gridtolerance="10"
     guidetolerance="10"
     inkscape:pageopacity="0"
     inkscape:pageshadow="2"
     inkscape:window-width="1294"
     inkscape:window-height="704"
     id="namedview78"
     showgrid="false"
     inkscape:zoom="3.8057651"
     inkscape:cx="99.677063"
     inkscape:cy="27.144449"
     inkscape:window-x="72"
     inkscape:window-y="27"
     inkscape:window-maximized="1"
     inkscape:current-layer="svg76" />
  <rect
     y="0"
     style="fill:#ffffff;fill-opacity:1"
     x="0.354065"
     width="198.646"
     height="53.711102"
     rx="4"
     id="rect2-3" />
  <rect
     x="0.354065"
     width="198.646"
     height="53.7111"
     rx="4"
     fill="#0B091A"
     id="rect2"
     style="fill:#ffffff;fill-opacity:0" />
  <path
     d="M32.1086 21.3742V32.1843H35.8317V21.3742H32.1086Z"
     fill="#FAB911"
     id="path4" />
  <path
     d="M20.9719 27.6447C22 27.6447 22.8334 26.8113 22.8334 25.7832C22.8334 24.7551 22 23.9216 20.9719 23.9216C19.9438 23.9216 19.1103 24.7551 19.1103 25.7832C19.1103 26.8113 19.9438 27.6447 20.9719 27.6447Z"
     fill="#2D64AD"
     id="path6" />
  <path
     d="M20.9719 29.6696C22 29.6696 22.8334 28.8361 22.8334 27.808C22.8334 26.7799 22 25.9465 20.9719 25.9465C19.9438 25.9465 19.1103 26.7799 19.1103 27.808C19.1103 28.8361 19.9438 29.6696 20.9719 29.6696Z"
     fill="#2D64AD"
     id="path8" />
  <path
     d="M19.143 25.7832H22.8661V27.808H19.143V25.7832Z"
     fill="#2D64AD"
     id="path10" />
  <path
     d="M46.9684 29.6696C47.9965 29.6696 48.8299 28.8361 48.8299 27.808C48.8299 26.7799 47.9965 25.9465 46.9684 25.9465C45.9403 25.9465 45.1068 26.7799 45.1068 27.808C45.1068 28.8361 45.9403 29.6696 46.9684 29.6696Z"
     fill="#527BBD"
     id="path12" />
  <path
     d="M46.9684 27.6447C47.9965 27.6447 48.8299 26.8113 48.8299 25.7832C48.8299 24.7551 47.9965 23.9216 46.9684 23.9216C45.9403 23.9216 45.1068 24.7551 45.1068 25.7832C45.1068 26.8113 45.9403 27.6447 46.9684 27.6447Z"
     fill="#527BBD"
     id="path14" />
  <path
     d="M45.1395 25.7832H48.8626V27.808H45.1395V25.7832Z"
     fill="#527BBD"
     id="path16" />
  <path
     d="M27.4057 33.7193C28.4338 33.7193 29.2673 32.8859 29.2673 31.8578C29.2673 30.8297 28.4338 29.9962 27.4057 29.9962C26.3776 29.9962 25.5442 30.8297 25.5442 31.8578C25.5442 32.8859 26.3776 33.7193 27.4057 33.7193Z"
     fill="#E84436"
     id="path18" />
  <path
     d="M27.4057 35.7442C28.4338 35.7442 29.2673 34.9107 29.2673 33.8826C29.2673 32.8545 28.4338 32.0211 27.4057 32.0211C26.3776 32.0211 25.5442 32.8545 25.5442 33.8826C25.5442 34.9107 26.3776 35.7442 27.4057 35.7442Z"
     fill="#E84436"
     id="path20" />
  <path
     d="M25.5442 31.8577H29.2673V33.8826H25.5442V31.8577Z"
     fill="#E84436"
     id="path22" />
  <path
     d="M27.4057 21.5702C28.4338 21.5702 29.2673 20.7367 29.2673 19.7086C29.2673 18.6805 28.4338 17.8471 27.4057 17.8471C26.3776 17.8471 25.5442 18.6805 25.5442 19.7086C25.5442 20.7367 26.3776 21.5702 27.4057 21.5702Z"
     fill="#E84436"
     id="path24" />
  <path
     d="M27.4057 28.1673C28.4338 28.1673 29.2673 27.3339 29.2673 26.3058C29.2673 25.2777 28.4338 24.4442 27.4057 24.4442C26.3776 24.4442 25.5442 25.2777 25.5442 26.3058C25.5442 27.3339 26.3776 28.1673 27.4057 28.1673Z"
     fill="#E84436"
     id="path26" />
  <path
     d="M25.5442 19.7086H29.2673V26.3383H25.5442V19.7086Z"
     fill="#E84436"
     id="path28" />
  <path
     d="M40.5672 23.595C41.5953 23.595 42.4288 22.7616 42.4288 21.7334C42.4288 20.7053 41.5953 19.8719 40.5672 19.8719C39.5391 19.8719 38.7057 20.7053 38.7057 21.7334C38.7057 22.7616 39.5391 23.595 40.5672 23.595Z"
     fill="#34A953"
     id="path30" />
  <path
     d="M40.5672 21.5702C41.5953 21.5702 42.4288 20.7367 42.4288 19.7086C42.4288 18.6805 41.5953 17.8471 40.5672 17.8471C39.5391 17.8471 38.7057 18.6805 38.7057 19.7086C38.7057 20.7367 39.5391 21.5702 40.5672 21.5702Z"
     fill="#34A953"
     id="path32" />
  <path
     d="M38.7057 19.7086H42.4288V21.7334H38.7057V19.7086Z"
     fill="#34A953"
     id="path34" />
  <path
     d="M33.9701 17.6837C34.9983 17.6837 35.8317 16.8503 35.8317 15.8222C35.8317 14.794 34.9983 13.9606 33.9701 13.9606C32.942 13.9606 32.1086 14.794 32.1086 15.8222C32.1086 16.8503 32.942 17.6837 33.9701 17.6837Z"
     fill="#FAB911"
     id="path36" />
  <path
     d="M33.9701 15.659C34.9983 15.659 35.8317 14.8255 35.8317 13.7974C35.8317 12.7693 34.9983 11.9359 33.9701 11.9359C32.942 11.9359 32.1086 12.7693 32.1086 13.7974C32.1086 14.8255 32.942 15.659 33.9701 15.659Z"
     fill="#FAB911"
     id="path38" />
  <path
     d="M32.1086 13.7973H35.8317V15.8222H32.1086V13.7973Z"
     fill="#FAB911"
     id="path40" />
  <path
     d="M33.9701 41.6554C34.9983 41.6554 35.8317 40.8219 35.8317 39.7938C35.8317 38.7657 34.9983 37.9323 33.9701 37.9323C32.942 37.9323 32.1086 38.7657 32.1086 39.7938C32.1086 40.8219 32.942 41.6554 33.9701 41.6554Z"
     fill="#FAB911"
     id="path42" />
  <path
     d="M33.9701 39.6306C34.9983 39.6306 35.8317 38.7971 35.8317 37.769C35.8317 36.7409 34.9983 35.9075 33.9701 35.9075C32.942 35.9075 32.1086 36.7409 32.1086 37.769C32.1086 38.7971 32.942 39.6306 33.9701 39.6306Z"
     fill="#FAB911"
     id="path44" />
  <path
     d="M32.1086 37.769H35.8317V39.7938H32.1086V37.769Z"
     fill="#FAB911"
     id="path46" />
  <path
     d="M40.5672 35.7442C41.5953 35.7442 42.4288 34.9107 42.4288 33.8826C42.4288 32.8545 41.5953 32.0211 40.5672 32.0211C39.5391 32.0211 38.7057 32.8545 38.7057 33.8826C38.7057 34.9107 39.5391 35.7442 40.5672 35.7442Z"
     fill="#34A953"
     id="path48" />
  <path
     d="M40.5672 29.1797C41.5953 29.1797 42.4288 28.3462 42.4288 27.3181C42.4288 26.29 41.5953 25.4566 40.5672 25.4566C39.5391 25.4566 38.7057 26.29 38.7057 27.3181C38.7057 28.3462 39.5391 29.1797 40.5672 29.1797Z"
     fill="#34A953"
     id="path50" />
  <path
     d="M38.7057 27.3182H42.4288V33.9153H38.7057V27.3182Z"
     fill="#34A953"
     id="path52" />
  <path
     d="M33.9701 23.2358C34.9983 23.2358 35.8317 22.4023 35.8317 21.3742C35.8317 20.3461 34.9983 19.5127 33.9701 19.5127C32.942 19.5127 32.1086 20.3461 32.1086 21.3742C32.1086 22.4023 32.942 23.2358 33.9701 23.2358Z"
     fill="#FAB911"
     id="path54" />
  <path
     d="M33.9701 34.0459C34.9983 34.0459 35.8317 33.2124 35.8317 32.1843C35.8317 31.1562 34.9983 30.3228 33.9701 30.3228C32.942 30.3228 32.1086 31.1562 32.1086 32.1843C32.1086 33.2124 32.942 34.0459 33.9701 34.0459Z"
     fill="#FAB911"
     id="path56" />
  <path
     d="M117.23 36.7476H115.662V24.3699H119.875C120.92 24.3699 121.835 24.7291 122.586 25.415C123.37 26.1008 123.729 26.9826 123.729 28.0604C123.729 29.1054 123.337 29.9872 122.586 30.7057C121.835 31.3916 120.888 31.7508 119.875 31.7508H117.23V36.7476ZM117.23 30.2158H119.875C120.561 30.2158 121.084 29.9872 121.508 29.53C121.9 29.0728 122.096 28.5829 122.096 28.0604C122.096 27.5378 121.9 27.0153 121.475 26.5907C121.084 26.1335 120.528 25.9049 119.875 25.9049H117.23V30.2158ZM125.068 29.3014C125.884 28.4523 126.929 27.995 128.203 27.995C129.477 27.995 130.522 28.4196 131.338 29.2687C132.155 30.1179 132.547 31.1956 132.547 32.502C132.547 33.7757 132.155 34.8534 131.338 35.7025C130.522 36.5517 129.477 36.9762 128.203 36.9762C126.929 36.9762 125.917 36.5517 125.068 35.7025C124.251 34.8534 123.827 33.7757 123.827 32.502C123.827 31.2283 124.251 30.1505 125.068 29.3014ZM126.244 34.7554C127.256 35.8332 128.954 35.8658 130.032 34.8534C130.065 34.8207 130.097 34.7881 130.13 34.7554C130.685 34.2002 130.947 33.4491 130.947 32.5346C130.947 31.6202 130.685 30.869 130.13 30.3138C129.575 29.7586 128.954 29.4647 128.171 29.4647C127.419 29.4647 126.766 29.7586 126.211 30.3138C125.656 30.869 125.395 31.6202 125.395 32.5346C125.427 33.4164 125.688 34.1676 126.244 34.7554ZM137.315 37.0089C136.237 37.0089 135.29 36.5843 134.474 35.7352C133.69 34.8534 133.233 33.7103 133.298 32.5346C133.298 31.2609 133.69 30.1832 134.474 29.334C135.617 27.995 137.511 27.6358 139.046 28.4523C139.568 28.7135 139.928 29.0728 140.189 29.4647H140.254L140.189 28.289V24.3699H141.757V36.7476H140.254V35.5719H140.189C139.928 35.9638 139.568 36.3231 139.046 36.617C138.556 36.8783 137.968 37.0089 137.315 37.0089ZM137.609 35.5719C138.36 35.5719 138.981 35.3106 139.503 34.7554C140.058 34.2002 140.287 33.4491 140.287 32.5346C140.287 31.5875 140.026 30.869 139.503 30.3138C138.948 29.7586 138.327 29.4647 137.576 29.4647C136.858 29.4647 136.205 29.726 135.682 30.3138C135.127 30.869 134.866 31.6202 134.866 32.5346C134.866 33.4817 135.127 34.2002 135.682 34.7554C136.205 35.278 136.858 35.5719 137.609 35.5719ZM147.309 37.0089C146.035 37.0089 144.99 36.5843 144.173 35.7352C143.357 34.8861 142.965 33.8083 142.965 32.5346C142.965 31.2283 143.357 30.1832 144.173 29.3014C144.99 28.4523 146.035 28.0277 147.309 28.0277C148.942 27.9624 150.411 28.9421 151.032 30.4445L149.562 31.065C149.203 30.0525 148.256 29.3994 147.211 29.4647C146.525 29.4647 145.872 29.7586 145.349 30.3138C144.794 30.9017 144.565 31.6202 144.565 32.502C144.565 33.3838 144.827 34.1349 145.382 34.6901C145.937 35.278 146.525 35.5392 147.243 35.5392C148.419 35.5392 149.235 34.984 149.693 33.939L151.097 34.5595C150.477 36.0944 148.974 37.0742 147.309 37.0089ZM154.853 37.0089C153.938 37.0089 153.187 36.7476 152.599 36.2251C152.011 35.7025 151.652 34.9514 151.685 34.1676C151.685 33.2531 152.044 32.5346 152.763 32.0121C153.546 31.4569 154.461 31.1956 155.408 31.2283C156.355 31.2283 157.106 31.3916 157.694 31.7508V31.5222C157.694 30.9017 157.466 30.4118 157.041 30.0525C156.616 29.6606 156.061 29.4647 155.473 29.4973C155.016 29.4973 154.592 29.5953 154.232 29.8239C153.84 30.0525 153.612 30.3465 153.448 30.7057L152.011 30.0852C152.207 29.5953 152.599 29.1054 153.187 28.6809C153.742 28.2563 154.526 28.0277 155.441 28.0277C156.518 28.0277 157.433 28.3543 158.151 28.9748C158.87 29.5953 159.229 30.5098 159.229 31.6528V36.7803H157.694V35.6046H157.629C157.041 36.519 155.963 37.0742 154.853 37.0089ZM155.114 35.5719C155.767 35.5719 156.355 35.3433 156.91 34.8534C157.466 34.3635 157.727 33.7757 157.727 33.1225C157.27 32.7632 156.584 32.5673 155.702 32.5673C154.918 32.5673 154.363 32.7306 153.938 33.0572C153.546 33.3838 153.351 33.7757 153.351 34.2329C153.351 34.6574 153.546 34.984 153.906 35.2126C154.232 35.4413 154.657 35.5719 155.114 35.5719ZM163.867 37.0089C162.234 37.0742 160.764 36.0944 160.176 34.5921L161.581 34.0043C162.038 35.0494 162.789 35.6046 163.867 35.6046C164.357 35.6046 164.748 35.4739 165.075 35.278C165.369 35.082 165.565 34.7554 165.532 34.4288C165.532 33.8736 165.14 33.5144 164.357 33.3184L162.658 32.9265C162.103 32.7632 161.581 32.502 161.123 32.1427C160.633 31.7835 160.372 31.1956 160.405 30.5751C160.405 29.8239 160.731 29.2361 161.417 28.7462C162.103 28.2563 162.92 28.0277 163.769 28.0277C164.52 28.0277 165.173 28.191 165.794 28.5502C166.381 28.8768 166.806 29.3667 167.035 30.0199L165.663 30.5751C165.336 29.8239 164.716 29.4647 163.736 29.4647C163.279 29.4647 162.854 29.5627 162.528 29.7586C162.201 29.9546 162.07 30.2158 162.07 30.5424C162.07 31.0323 162.43 31.3589 163.181 31.5222L164.846 31.9141C165.63 32.0774 166.218 32.404 166.61 32.8612C167.002 33.3184 167.165 33.8083 167.165 34.3962C167.165 35.1473 166.839 35.8005 166.218 36.2904C165.663 36.7803 164.846 37.0089 163.867 37.0089ZM171.966 36.8783C171.084 36.8783 170.398 36.6496 169.941 36.1924C169.451 35.6372 169.19 34.9187 169.255 34.1676V29.726H167.786V28.2563H169.255V25.6763H170.856V28.2563H172.913V29.726H170.856V34.0369C170.856 34.9514 171.248 35.4086 171.999 35.4086C172.293 35.4086 172.554 35.3433 172.717 35.278L173.272 36.617C172.881 36.8129 172.456 36.8783 171.966 36.8783ZM177.518 37.0089C175.885 37.0742 174.415 36.0944 173.828 34.5921L175.232 34.0043C175.689 35.0494 176.44 35.6046 177.518 35.6046C178.008 35.6046 178.4 35.4739 178.726 35.278C179.02 35.082 179.216 34.7554 179.184 34.4288C179.184 33.8736 178.792 33.5144 178.008 33.3184L176.31 32.9265C175.755 32.7632 175.232 32.502 174.775 32.1427C174.285 31.7835 174.024 31.1956 174.056 30.5751C174.056 29.8239 174.383 29.2361 175.069 28.7462C175.755 28.2563 176.571 28.0277 177.42 28.0277C178.171 28.0277 178.824 28.191 179.445 28.5502C180.033 28.8768 180.457 29.3667 180.686 30.0199L179.314 30.5751C178.988 29.8239 178.367 29.4647 177.387 29.4647C176.93 29.4647 176.506 29.5627 176.179 29.7586C175.852 29.9546 175.722 30.2158 175.722 30.5424C175.722 31.0323 176.081 31.3589 176.832 31.5222L178.498 31.9141C179.282 32.0774 179.87 32.404 180.261 32.8612C180.653 33.3184 180.817 33.8083 180.817 34.3962C180.817 35.1473 180.49 35.8005 179.87 36.2904C179.314 36.7803 178.498 37.0089 177.518 37.0089ZM55.3085 29.9219C55.3085 26.0028 58.5744 22.8349 62.4935 22.8349C64.3224 22.8023 66.0533 23.5208 67.3597 24.7945L65.988 26.1661C63.9631 24.2393 60.7299 24.3372 58.803 26.3621C57.8886 27.3092 57.3987 28.5829 57.4314 29.9219C57.4314 32.7632 59.6522 35.082 62.4935 35.082C63.8325 35.1473 65.1389 34.6248 66.086 33.6777C66.6412 33.1225 67.0004 32.3387 67.1311 31.2609H62.4935V29.334H69.0253C69.0906 29.6933 69.1232 30.0852 69.1232 30.5424C69.1886 32.208 68.568 33.841 67.4576 35.082C66.1513 36.421 64.355 37.1395 62.4935 37.0742C58.5744 37.0089 55.3739 33.841 55.3085 29.9219ZM74.316 27.9624C76.7981 27.9297 78.8556 29.8892 78.8883 32.3713C78.8883 32.404 78.8883 32.4693 78.8883 32.502C78.9209 34.984 76.9287 37.0415 74.4466 37.0742C74.3813 37.0742 74.3487 37.0742 74.2833 37.0742C71.8013 37.1069 69.7438 35.1147 69.7111 32.6326C69.7111 32.5999 69.7111 32.5346 69.7111 32.502C69.6784 30.0199 71.638 27.995 74.1201 27.9624C74.218 27.9624 74.2833 27.9624 74.316 27.9624ZM74.316 35.278C75.6877 35.278 76.8961 34.1349 76.8961 32.502C76.8961 30.869 75.6877 29.726 74.316 29.726C72.9117 29.726 71.736 30.8364 71.736 32.502C71.7686 34.1349 72.9443 35.278 74.316 35.278ZM84.3096 27.9624C86.7917 27.9297 88.8492 29.9219 88.8819 32.404C88.8819 32.4366 88.8819 32.502 88.8819 32.5346C88.9145 35.0167 86.9223 37.0742 84.4403 37.1069C84.4076 37.1069 84.3423 37.1069 84.3096 37.1069C81.8275 37.1395 79.77 35.18 79.7374 32.6979C79.7374 32.6326 79.7374 32.5999 79.7374 32.5346C79.7047 30.0525 81.6643 28.0277 84.1463 27.995C84.2116 27.9624 84.277 27.9624 84.3096 27.9624ZM84.3096 35.278C85.6813 35.278 86.8897 34.1349 86.8897 32.502C86.8897 30.869 85.714 29.726 84.3096 29.726C82.9053 29.726 81.7296 30.8364 81.7296 32.502C81.7296 34.1349 82.938 35.278 84.3096 35.278ZM96.5567 28.1257H98.4836V36.323C98.4836 39.6869 96.4914 41.0912 94.1399 41.0912C92.3764 41.0912 90.7761 40.0462 90.0902 38.3806L91.8538 37.6621C92.1478 38.4132 92.8989 39.295 94.1399 39.295C95.6096 39.295 96.5567 38.3479 96.5567 36.617V35.9638H96.4914C95.8709 36.6496 94.9891 37.0415 94.0746 37.0089C91.6252 36.9436 89.6983 34.9187 89.6983 32.4693C89.6983 29.8892 91.7885 27.8971 94.0746 27.8971C95.1524 27.8971 96.0342 28.3869 96.4914 28.9095H96.5567V28.1257ZM94.2706 35.1473C95.6096 35.1473 96.6873 34.0043 96.6873 32.404C96.6873 30.8037 95.6096 29.628 94.2706 29.628C92.8989 29.628 91.7232 30.8037 91.7232 32.404C91.7232 34.0043 92.8989 35.1473 94.2706 35.1473ZM99.8553 36.7803V23.3901H101.847V36.7803H99.8553ZM107.334 35.3106C108.347 35.3106 109.065 34.7881 109.588 34.0369L111.155 35.082C110.306 36.3557 108.869 37.1069 107.334 37.1069C104.885 37.1395 102.86 35.18 102.827 32.6979C102.827 32.6326 102.827 32.5999 102.827 32.5346C102.827 29.8239 104.787 27.995 107.138 27.995C109.49 27.995 110.665 29.8566 111.025 30.869L111.221 31.3916L105.113 33.9063C105.603 34.8207 106.322 35.278 107.334 35.3106ZM107.204 29.726C106.158 29.726 104.754 30.6404 104.787 32.3713L108.869 30.6731C108.64 30.1179 107.987 29.726 107.204 29.726Z"
     fill="white"
     id="path58"
     style="fill:#212b38;fill-opacity:1" />
  <g
     transform="matrix(3.955104,0,0,3.955104,-79.205192,-158.80434)"
     aria-label="Słuchaj w"
     style="font-style:normal;font-variant:normal;font-weight:normal;font-stretch:normal;font-size:4.59036207px;line-height:1.25;font-family:'Open Sans';-inkscape-font-specification:'Open Sans';letter-spacing:0px;word-spacing:0px;fill:#212b38;fill-opacity:1;stroke:none;stroke-width:0.28689763"
     id="text903">
    <path
       inkscape:connector-curvature="0"
       d="m 35.068867,44.308964 q 0,0.221897 -0.16026,0.349656 -0.159138,0.127759 -0.443794,0.127759 -0.262243,0 -0.463968,-0.09862 V 44.365 q 0.165863,0.07397 0.280174,0.104224 0.115431,0.03026 0.21069,0.03026 0.114311,0 0.174829,-0.04371 0.06164,-0.04371 0.06164,-0.130001 0,-0.04819 -0.0269,-0.08517 -0.0269,-0.0381 -0.07957,-0.07285 -0.05155,-0.03474 -0.211811,-0.110948 -0.150173,-0.0706 -0.22526,-0.135604 -0.07509,-0.065 -0.119914,-0.151294 -0.04483,-0.08629 -0.04483,-0.201725 0,-0.217414 0.146811,-0.341811 0.147932,-0.124397 0.407933,-0.124397 0.127759,0 0.24319,0.03026 0.116552,0.03026 0.243191,0.08517 l -0.11207,0.270087 q -0.131121,-0.05379 -0.217414,-0.07509 -0.08517,-0.02129 -0.168104,-0.02129 -0.09862,0 -0.151294,0.04595 -0.05267,0.04595 -0.05267,0.119914 0,0.04595 0.02129,0.08069 0.02129,0.03362 0.06724,0.06612 0.04707,0.03138 0.220777,0.114311 0.229742,0.109828 0.314915,0.220777 0.08517,0.109828 0.08517,0.270087 z"
       style="font-style:normal;font-variant:normal;font-weight:bold;font-stretch:normal;font-size:2.29518104px;font-family:'Open Sans';-inkscape-font-specification:'Open Sans Bold';fill:#212b38;fill-opacity:1;stroke-width:0.28689763"
       id="path968" />
    <path
       inkscape:connector-curvature="0"
       d="m 35.707662,43.72172 0.07845,-0.04819 0.131121,0.220777 -0.20957,0.125518 v 0.744141 H 35.36585 v -0.534571 l -0.07957,0.04819 -0.126638,-0.220776 0.206207,-0.125518 v -0.911124 h 0.341812 z"
       style="font-style:normal;font-variant:normal;font-weight:bold;font-stretch:normal;font-size:2.29518104px;font-family:'Open Sans';-inkscape-font-specification:'Open Sans Bold';fill:#212b38;fill-opacity:1;stroke-width:0.28689763"
       id="path970" />
    <path
       inkscape:connector-curvature="0"
       d="m 36.984132,44.763966 -0.04595,-0.16026 h -0.01793 q -0.05491,0.08742 -0.155777,0.135604 -0.100862,0.04707 -0.229742,0.04707 -0.220777,0 -0.332846,-0.117672 -0.112069,-0.118794 -0.112069,-0.340691 V 43.51103 h 0.341811 v 0.731813 q 0,0.135604 0.04819,0.203966 0.04819,0.06724 0.153535,0.06724 0.143449,0 0.207329,-0.09526 0.06388,-0.09638 0.06388,-0.318277 V 43.51103 h 0.341812 v 1.252936 z"
       style="font-style:normal;font-variant:normal;font-weight:bold;font-stretch:normal;font-size:2.29518104px;font-family:'Open Sans';-inkscape-font-specification:'Open Sans Bold';fill:#212b38;fill-opacity:1;stroke-width:0.28689763"
       id="path972" />
    <path
       d="m 38.065724,44.786379 q -0.585002,0 -0.585002,-0.642157 0,-0.319398 0.159138,-0.487502 0.159139,-0.169225 0.456123,-0.169225 0.217414,0 0.390001,0.08517 l -0.100862,0.264484 q -0.08069,-0.0325 -0.150173,-0.05267 -0.06948,-0.02129 -0.138966,-0.02129 -0.266725,0 -0.266725,0.378795 0,0.367587 0.266725,0.367587 0.09862,0 0.182673,-0.02578 0.08405,-0.0269 0.168104,-0.08293 v 0.292501 q -0.08293,0.05267 -0.168104,0.07285 -0.08405,0.02017 -0.212932,0.02017 z"
       style="font-style:normal;font-variant:normal;font-weight:bold;font-stretch:normal;font-size:2.29518104px;font-family:'Open Sans';-inkscape-font-specification:'Open Sans Bold';fill:#212b38;fill-opacity:1;stroke-width:0.28689763"
       id="path974"
       inkscape:connector-curvature="0" />
    <path
       d="m 39.893575,44.763966 h -0.341811 v -0.731813 q 0,-0.271208 -0.201725,-0.271208 -0.143449,0 -0.207328,0.0975 -0.06388,0.0975 -0.06388,0.316036 v 0.589485 h -0.341812 v -1.7438 h 0.341812 v 0.35526 q 0,0.04147 -0.0078,0.195001 l -0.0078,0.100862 h 0.01793 q 0.114311,-0.183794 0.363105,-0.183794 0.220777,0 0.335088,0.118794 0.11431,0.118793 0.11431,0.340691 z"
       style="font-style:normal;font-variant:normal;font-weight:bold;font-stretch:normal;font-size:2.29518104px;font-family:'Open Sans';-inkscape-font-specification:'Open Sans Bold';fill:#212b38;fill-opacity:1;stroke-width:0.28689763"
       id="path976"
       inkscape:connector-curvature="0" />
    <path
       d="m 41.017132,44.763966 -0.06612,-0.170346 h -0.009 q -0.08629,0.108707 -0.178191,0.151294 -0.09078,0.04146 -0.237587,0.04146 -0.180431,0 -0.284656,-0.103103 -0.103104,-0.103104 -0.103104,-0.293622 0,-0.199484 0.138966,-0.293622 0.140087,-0.09526 0.421381,-0.105345 l 0.217415,-0.0067 v -0.05491 q 0,-0.190518 -0.195001,-0.190518 -0.150173,0 -0.353018,0.09078 l -0.113191,-0.230863 q 0.216294,-0.11319 0.479657,-0.11319 0.252157,0 0.38664,0.109828 0.134483,0.109828 0.134483,0.333967 v 0.834917 z m -0.100862,-0.58052 -0.132242,0.0045 q -0.149052,0.0045 -0.221897,0.05379 -0.07285,0.04931 -0.07285,0.150173 0,0.14457 0.165863,0.14457 0.118794,0 0.189397,-0.06836 0.07173,-0.06836 0.07173,-0.181552 z"
       style="font-style:normal;font-variant:normal;font-weight:bold;font-stretch:normal;font-size:2.29518104px;font-family:'Open Sans';-inkscape-font-specification:'Open Sans Bold';fill:#212b38;fill-opacity:1;stroke-width:0.28689763"
       id="path978"
       inkscape:connector-curvature="0" />
    <path
       d="m 41.506875,45.315347 q -0.131121,0 -0.225259,-0.02802 V 45.01836 q 0.07845,0.02129 0.160259,0.02129 0.08629,0 0.125518,-0.04819 0.04035,-0.04819 0.04035,-0.142328 V 43.51103 h 0.341811 v 1.38854 q 0,0.199483 -0.115431,0.30707 -0.115431,0.108707 -0.327243,0.108707 z m 0.08629,-2.128198 q 0,-0.166983 0.186035,-0.166983 0.186035,0 0.186035,0.166983 0,0.07957 -0.04707,0.124397 -0.04595,0.04371 -0.138966,0.04371 -0.186035,0 -0.186035,-0.168104 z"
       style="font-style:normal;font-variant:normal;font-weight:bold;font-stretch:normal;font-size:2.29518104px;font-family:'Open Sans';-inkscape-font-specification:'Open Sans Bold';fill:#212b38;fill-opacity:1;stroke-width:0.28689763"
       id="path980"
       inkscape:connector-curvature="0" />
    <path
       inkscape:connector-curvature="0"
       d="m 44.0064,44.763966 -0.09638,-0.438192 -0.130001,-0.553622 h -0.0078 l -0.228621,0.991814 H 43.175966 L 42.819585,43.51103 h 0.340691 l 0.14457,0.554743 q 0.03474,0.149053 0.0706,0.411295 h 0.0067 q 0.0045,-0.08517 0.03922,-0.270087 l 0.01793,-0.09526 0.154656,-0.600692 h 0.376553 l 0.146811,0.600692 q 0.0045,0.02466 0.01345,0.07285 0.01009,0.04819 0.01905,0.103104 0.009,0.05379 0.01569,0.106466 0.0078,0.05155 0.009,0.08293 h 0.0067 q 0.01009,-0.08069 0.03586,-0.220777 0.02578,-0.141207 0.03698,-0.190518 l 0.150173,-0.554743 h 0.335087 l -0.360863,1.252936 z"
       style="font-style:normal;font-variant:normal;font-weight:bold;font-stretch:normal;font-size:2.29518104px;font-family:'Open Sans';-inkscape-font-specification:'Open Sans Bold';fill:#212b38;fill-opacity:1;stroke-width:0.28689763"
       id="path982" />
  </g>
</svg>
