<?xml version="1.0" encoding="UTF-8" standalone="no"?>
<svg
   xmlns:dc="http://purl.org/dc/elements/1.1/"
   xmlns:cc="http://creativecommons.org/ns#"
   xmlns:rdf="http://www.w3.org/1999/02/22-rdf-syntax-ns#"
   xmlns:svg="http://www.w3.org/2000/svg"
   xmlns="http://www.w3.org/2000/svg"
   xmlns:sodipodi="http://sodipodi.sourceforge.net/DTD/sodipodi-0.dtd"
   xmlns:inkscape="http://www.inkscape.org/namespaces/inkscape"
   width="200"
   height="54"
   viewBox="0 0 200 54"
   fill="none"
   version="1.1"
   id="svg57"
   sodipodi:docname="slack.svg"
   inkscape:version="0.92.5 (2060ec1f9f, 2020-04-08)">
  <metadata
     id="metadata61">
    <rdf:RDF>
      <cc:Work
         rdf:about="">
        <dc:format>image/svg+xml</dc:format>
        <dc:type
           rdf:resource="http://purl.org/dc/dcmitype/StillImage" />
        <dc:title />
      </cc:Work>
    </rdf:RDF>
  </metadata>
  <sodipodi:namedview
     pagecolor="#ffffff"
     bordercolor="#666666"
     borderopacity="1"
     objecttolerance="10"
     gridtolerance="10"
     guidetolerance="10"
     inkscape:pageopacity="0"
     inkscape:pageshadow="2"
     inkscape:window-width="1294"
     inkscape:window-height="704"
     id="namedview59"
     showgrid="false"
     inkscape:zoom="1.2268303"
     inkscape:cx="72.903363"
     inkscape:cy="-56.742355"
     inkscape:window-x="72"
     inkscape:window-y="27"
     inkscape:window-maximized="1"
     inkscape:current-layer="svg57" />
  <defs
     id="defs55">
    <linearGradient
       id="paint0_linear"
       x1="34.5495"
       y1="11.9358"
       x2="34.5495"
       y2="41.9699"
       gradientUnits="userSpaceOnUse">
      <stop
         stop-color="#F452FF"
         id="stop50" />
      <stop
         offset="1"
         stop-color="#832BC1"
         id="stop52" />
    </linearGradient>
  </defs>
  <style
     id="style909"
     type="text/css">
	.st0{fill:#E01E5A;}
	.st1{fill:#36C5F0;}
	.st2{fill:#2EB67D;}
	.st3{fill:#ECB22E;}
</style>
  <g
     id="g921"
     transform="matrix(0.30217566,0,0,0.30217566,6.053584,-10.892832)"
     style="fill:#212b38;fill-opacity:1">
    <path
       inkscape:connector-curvature="0"
       d="m 221.5,161.5 6.2,-14.4 c 6.7,5 15.6,7.6 24.4,7.6 6.5,0 10.6,-2.5 10.6,-6.3 -0.1,-10.6 -38.9,-2.3 -39.2,-28.9 -0.1,-13.5 11.9,-23.9 28.9,-23.9 10.1,0 20.2,2.5 27.4,8.2 l -5.8,14.7 c -6.6,-4.2 -14.8,-7.2 -22.6,-7.2 -5.3,0 -8.8,2.5 -8.8,5.7 0.1,10.4 39.2,4.7 39.6,30.1 0,13.8 -11.7,23.5 -28.5,23.5 -12.3,0 -23.6,-2.9 -32.2,-9.1"
       id="path911"
       style="fill:#212b38;fill-opacity:1" />
    <path
       inkscape:connector-curvature="0"
       d="m 459.4,141.9 c -3.1,5.4 -8.9,9.1 -15.6,9.1 -9.9,0 -17.9,-8 -17.9,-17.9 0,-9.9 8,-17.9 17.9,-17.9 6.7,0 12.5,3.7 15.6,9.1 l 17.1,-9.5 c -6.4,-11.4 -18.7,-19.2 -32.7,-19.2 -20.7,0 -37.5,16.8 -37.5,37.5 0,20.7 16.8,37.5 37.5,37.5 14.1,0 26.3,-7.7 32.7,-19.2 z"
       id="path913"
       style="fill:#212b38;fill-opacity:1" />
    <rect
       x="290.79999"
       y="64.5"
       width="21.4"
       height="104.7"
       id="rect915"
       style="fill:#212b38;fill-opacity:1" />
    <polygon
       points="506.3,64.5 484.9,64.5 484.9,169.2 506.3,169.2 506.3,137.8 531.7,169.2 559.1,169.2 526.8,131.9 556.7,97.1 530.5,97.1 506.3,126 "
       id="polygon917"
       style="fill:#212b38;fill-opacity:1" />
    <path
       inkscape:connector-curvature="0"
       d="m 375.8,142.1 c -3.1,5.1 -9.5,8.9 -16.7,8.9 -9.9,0 -17.9,-8 -17.9,-17.9 0,-9.9 8,-17.9 17.9,-17.9 7.2,0 13.6,4 16.7,9.2 z m 0,-45 v 8.5 c -3.5,-5.9 -12.2,-10 -21.3,-10 -18.8,0 -33.6,16.6 -33.6,37.4 0,20.8 14.8,37.6 33.6,37.6 9.1,0 17.8,-4.1 21.3,-10 v 8.5 h 21.4 v -72 z"
       id="path919"
       style="fill:#212b38;fill-opacity:1" />
  </g>
  <g
     id="g947"
     transform="matrix(0.30217566,0,0,0.30217566,6.053584,-10.892832)">
    <g
       id="g927">
      <path
         style="fill:#e01e5a"
         inkscape:connector-curvature="0"
         class="st0"
         d="m 89.2,142 c 0,7.3 -5.9,13.2 -13.2,13.2 -7.3,0 -13.2,-5.9 -13.2,-13.2 0,-7.3 5.9,-13.2 13.2,-13.2 h 13.2 z"
         id="path923" />
      <path
         style="fill:#e01e5a"
         inkscape:connector-curvature="0"
         class="st0"
         d="m 95.8,142 c 0,-7.3 5.9,-13.2 13.2,-13.2 7.3,0 13.2,5.9 13.2,13.2 v 33 c 0,7.3 -5.9,13.2 -13.2,13.2 -7.3,0 -13.2,-5.9 -13.2,-13.2 z"
         id="path925" />
    </g>
    <g
       id="g933">
      <path
         style="fill:#36c5f0"
         inkscape:connector-curvature="0"
         class="st1"
         d="m 109,89 c -7.3,0 -13.2,-5.9 -13.2,-13.2 0,-7.3 5.9,-13.2 13.2,-13.2 7.3,0 13.2,5.9 13.2,13.2 V 89 Z"
         id="path929" />
      <path
         style="fill:#36c5f0"
         inkscape:connector-curvature="0"
         class="st1"
         d="m 109,95.7 c 7.3,0 13.2,5.9 13.2,13.2 0,7.3 -5.9,13.2 -13.2,13.2 H 75.9 c -7.3,0 -13.2,-5.9 -13.2,-13.2 0,-7.3 5.9,-13.2 13.2,-13.2 z"
         id="path931" />
    </g>
    <g
       id="g939">
      <path
         style="fill:#2eb67d"
         inkscape:connector-curvature="0"
         class="st2"
         d="m 161.9,108.9 c 0,-7.3 5.9,-13.2 13.2,-13.2 7.3,0 13.2,5.9 13.2,13.2 0,7.3 -5.9,13.2 -13.2,13.2 h -13.2 z"
         id="path935" />
      <path
         style="fill:#2eb67d"
         inkscape:connector-curvature="0"
         class="st2"
         d="m 155.3,108.9 c 0,7.3 -5.9,13.2 -13.2,13.2 -7.3,0 -13.2,-5.9 -13.2,-13.2 V 75.8 c 0,-7.3 5.9,-13.2 13.2,-13.2 7.3,0 13.2,5.9 13.2,13.2 z"
         id="path937" />
    </g>
    <g
       id="g945">
      <path
         style="fill:#ecb22e"
         inkscape:connector-curvature="0"
         class="st3"
         d="m 142.1,161.8 c 7.3,0 13.2,5.9 13.2,13.2 0,7.3 -5.9,13.2 -13.2,13.2 -7.3,0 -13.2,-5.9 -13.2,-13.2 v -13.2 z"
         id="path941" />
      <path
         style="fill:#ecb22e"
         inkscape:connector-curvature="0"
         class="st3"
         d="m 142.1,155.2 c -7.3,0 -13.2,-5.9 -13.2,-13.2 0,-7.3 5.9,-13.2 13.2,-13.2 h 33.1 c 7.3,0 13.2,5.9 13.2,13.2 0,7.3 -5.9,13.2 -13.2,13.2 z"
         id="path943" />
    </g>
  </g>
</svg>
