<?xml version="1.0" encoding="UTF-8" standalone="no"?>
<!-- Created with Inkscape (http://www.inkscape.org/) -->

<svg
   xmlns:dc="http://purl.org/dc/elements/1.1/"
   xmlns:cc="http://creativecommons.org/ns#"
   xmlns:rdf="http://www.w3.org/1999/02/22-rdf-syntax-ns#"
   xmlns:svg="http://www.w3.org/2000/svg"
   xmlns="http://www.w3.org/2000/svg"
   xmlns:sodipodi="http://sodipodi.sourceforge.net/DTD/sodipodi-0.dtd"
   xmlns:inkscape="http://www.inkscape.org/namespaces/inkscape"
   width="55mm"
   height="15mm"
   viewBox="0 0 55 15"
   version="1.1"
   id="svg8"
   inkscape:version="0.92.5 (2060ec1f9f, 2020-04-08)"
   sodipodi:docname="spotify.svg">
  <defs
     id="defs2" />
  <sodipodi:namedview
     id="base"
     pagecolor="#ffffff"
     bordercolor="#666666"
     borderopacity="1.0"
     inkscape:pageopacity="0.0"
     inkscape:pageshadow="2"
     inkscape:zoom="3.7193817"
     inkscape:cx="107.66157"
     inkscape:cy="8.8342366"
     inkscape:document-units="mm"
     inkscape:current-layer="g928"
     showgrid="false"
     inkscape:window-width="1294"
     inkscape:window-height="704"
     inkscape:window-x="72"
     inkscape:window-y="27"
     inkscape:window-maximized="1" />
  <metadata
     id="metadata5">
    <rdf:RDF>
      <cc:Work
         rdf:about="">
        <dc:format>image/svg+xml</dc:format>
        <dc:type
           rdf:resource="http://purl.org/dc/dcmitype/StillImage" />
        <dc:title></dc:title>
      </cc:Work>
    </rdf:RDF>
  </metadata>
  <g
     inkscape:label="Layer 1"
     inkscape:groupmode="layer"
     id="layer1"
     transform="translate(0,-282)">
    <g
       id="g928"
       transform="matrix(1.0464546,0,0,1.0464546,-12.053493,240.5471)">
      <rect
         transform="scale(1,-1)"
         id="rect815"
         rx="1.0583333"
         height="14.211062"
         width="52.558418"
         x="11.518411"
         y="-53.885296"
         style="fill:#ffffff;fill-opacity:1;stroke-width:0.26458332" />
      <path
         id="path817"
         d="m 28.729603,42.832245 c -2.165509,0 -3.902419,1.73691 -3.902419,3.902419 0,2.165482 1.73691,3.924961 3.902419,3.924961 2.165482,0 3.902392,-1.759479 3.902392,-3.902419 0,-2.165482 -1.73691,-3.924961 -3.902392,-3.924961 z m 1.782022,5.639329 c -0.06768,0.112765 -0.225584,0.157903 -0.338376,0.09022 -0.902282,-0.563933 -2.05269,-0.699268 -3.428682,-0.383487 -0.135361,0.02257 -0.270696,-0.04511 -0.293265,-0.180446 -0.02254,-0.135335 0.06768,-0.270695 0.180473,-0.293238 1.488784,-0.338376 2.774526,-0.203015 3.789627,0.428572 0.135334,0.06768 0.180446,0.225584 0.09022,0.338376 z m 0.496252,-1.060212 c -0.09022,0.135361 -0.270695,0.180472 -0.428598,0.09025 -1.060186,-0.654182 -2.661735,-0.834628 -3.902393,-0.451141 -0.157903,0.04511 -0.315807,-0.04514 -0.383461,-0.203041 -0.04514,-0.157877 0.04511,-0.338349 0.203015,-0.383461 1.421104,-0.428598 3.180556,-0.225583 4.398645,0.518822 0.157904,0.09022 0.203015,0.270695 0.112792,0.428572 z m 0.02257,-1.105297 c -1.263227,-0.744379 -3.338486,-0.812059 -4.534006,-0.451141 -0.203015,0.06768 -0.406056,-0.04511 -0.451167,-0.248126 -0.06765,-0.203015 0.04511,-0.40603 0.248152,-0.451141 1.375993,-0.428599 3.676809,-0.338376 5.120482,0.518795 0.180472,0.112792 0.225583,0.338375 0.135334,0.496279 -0.112765,0.180446 -0.338349,0.225557 -0.518795,0.135334 z"
         inkscape:connector-curvature="0"
         style="fill:#2ebd59;stroke-width:0.26458332" />
      <path
         id="path835"
         d="m 35.45166,47.636946 c -0.676725,-0.157904 -0.78949,-0.270696 -0.78949,-0.518822 0,-0.225584 0.203015,-0.383487 0.518795,-0.383487 0.315806,0 0.609044,0.112792 0.924851,0.360918 h 0.02257 c 0.02254,0 0.02254,0 0.02254,-0.02254 l 0.338376,-0.47371 c 0.02254,-0.02257 0,-0.04511 0,-0.06768 -0.383487,-0.293237 -0.812059,-0.451141 -1.285769,-0.451141 -0.721837,0 -1.240658,0.428599 -1.240658,1.060186 0,0.676725 0.428599,0.902308 1.195546,1.082754 0.654156,0.157903 0.744379,0.270695 0.744379,0.496253 0,0.248152 -0.225557,0.406029 -0.586475,0.406029 -0.383488,0 -0.721837,-0.135334 -1.082755,-0.451141 H 34.211 c -0.02254,0 -0.02254,0 -0.02254,0.02257 l -0.360918,0.451141 c -0.02257,0.02257 -0.02257,0.04511 0,0.06768 0.428598,0.38346 0.924851,0.563932 1.488784,0.563932 0.78949,0 1.285742,-0.428598 1.285742,-1.105323 0.02257,-0.518821 -0.31578,-0.834602 -1.150408,-1.037616 z"
         inkscape:connector-curvature="0"
         style="fill:#2ebd59;stroke-width:0.26458332" />
      <path
         id="path837"
         d="m 38.384143,46.960221 c -0.338402,0 -0.63164,0.135361 -0.857197,0.406029 v -0.31578 c 0,-0.02257 -0.02257,-0.04514 -0.04514,-0.04514 H 36.89533 c -0.02257,0 -0.04511,0.02257 -0.04511,0.04514 v 3.451252 c 0,0.02254 0.02254,0.04511 0.04511,0.04511 h 0.609045 c 0.02257,0 0.04511,-0.02257 0.04511,-0.04511 v -1.082755 c 0.225584,0.248127 0.518742,0.383487 0.857144,0.383487 0.631561,0 1.263121,-0.496279 1.263121,-1.42113 0,-0.924824 -0.63156,-1.421103 -1.28561,-1.421103 z m 0.586581,1.421103 c 0,0.47371 -0.293423,0.81206 -0.699294,0.81206 -0.406135,0 -0.721942,-0.33835 -0.721942,-0.81206 0,-0.451141 0.315807,-0.812059 0.721942,-0.812059 0.383382,0.02257 0.699294,0.360918 0.699294,0.812059 z"
         inkscape:connector-curvature="0"
         style="fill:#2ebd59;stroke-width:0.26458332" />
      <path
         id="path839"
         d="m 41.31652,46.960221 c -0.812006,0 -1.443567,0.631613 -1.443567,1.421103 0,0.789517 0.631561,1.42113 1.443567,1.42113 0.812006,0 1.466321,-0.631613 1.466321,-1.42113 -0.02275,-0.78949 -0.654315,-1.421103 -1.466321,-1.421103 z m 0,2.233189 c -0.428625,0 -0.767027,-0.338376 -0.767027,-0.812086 0,-0.473683 0.315912,-0.78949 0.744537,-0.78949 0.428625,0 0.767027,0.338349 0.767027,0.812059 0,0.451141 -0.315912,0.789517 -0.744537,0.789517 z"
         inkscape:connector-curvature="0"
         style="fill:#2ebd59;stroke-width:0.26458332" />
      <path
         id="path841"
         d="m 44.497076,47.027901 h -0.65405 v -0.676724 c 0,-0.02257 -0.02249,-0.04511 -0.04524,-0.04511 h -0.60907 c -0.02249,0 -0.04498,0.02254 -0.04498,0.04511 v 0.676724 h -0.293158 c -0.02275,0 -0.04524,0.02254 -0.04524,0.04511 v 0.518821 c 0,0.02254 0.02249,0.04511 0.04524,0.04511 h 0.293158 v 1.353423 c 0,0.54139 0.270669,0.812059 0.812007,0.812059 0.225689,0 0.406135,-0.04511 0.563827,-0.135334 0.02275,0 0.02275,-0.02257 0.02275,-0.04511 v -0.49625 c 0,-0.02257 0,-0.02257 -0.02275,-0.04514 -0.02249,0 -0.02249,0 -0.04498,0 -0.112713,0.06768 -0.22569,0.09025 -0.360892,0.09025 -0.202936,0 -0.270669,-0.09025 -0.270669,-0.293264 v -1.240631 h 0.65405 c 0.02249,0 0.04524,-0.02257 0.04524,-0.04511 v -0.518821 c 0,-0.02257 -0.02275,-0.04511 -0.04524,-0.04511 z"
         inkscape:connector-curvature="0"
         style="fill:#2ebd59;stroke-width:0.26458332" />
      <path
         id="path843"
         d="m 46.820647,47.027901 v -0.09022 c 0,-0.248152 0.09022,-0.360918 0.315648,-0.360918 0.135466,0 0.225689,0.02254 0.338402,0.06765 0.02249,0 0.02249,0 0.04498,0 0.02275,0 0.02275,-0.02254 0.02275,-0.04511 V 46.10305 c 0,-0.02257 -0.02275,-0.04511 -0.02275,-0.04511 -0.157692,-0.04511 -0.293158,-0.06768 -0.541337,-0.06768 -0.563828,0 -0.856986,0.315807 -0.856986,0.902282 v 0.135361 H 45.82793 c -0.02249,0 -0.04498,0.02254 -0.04498,0.04511 v 0.518821 c 0,0.02254 0.02249,0.04511 0.04498,0.04511 h 0.315913 v 2.075259 c 0,0.02257 0.02249,0.04511 0.04498,0.04511 h 0.609071 c 0.02275,0 0.04524,-0.02254 0.04524,-0.04511 v -2.075259 h 0.563828 l 0.85725,2.075259 c -0.09022,0.225584 -0.202936,0.270695 -0.315913,0.270695 -0.112712,0 -0.225425,-0.02257 -0.338402,-0.09022 0,0 -0.02249,0 -0.04498,0 -0.02249,0 -0.02249,0.02254 -0.02249,0.02254 l -0.2032,0.451141 c 0,0.02257 0,0.04511 0.02275,0.06768 0.202936,0.112792 0.405871,0.157904 0.65405,0.157904 0.451115,0 0.699294,-0.203015 0.90223,-0.766948 l 1.037695,-2.706873 c 0,-0.02257 0,-0.02257 0,-0.04511 0,-0.02257 -0.02249,-0.02257 -0.04498,-0.02257 h -0.631825 c -0.02249,0 -0.04498,0.02257 -0.04498,0.02257 l -0.654315,1.849702 -0.699029,-1.849702 c 0,-0.02257 -0.02275,-0.02257 -0.04524,-0.02257 z"
         inkscape:connector-curvature="0"
         style="fill:#2ebd59;stroke-width:0.26458332" />
      <path
         id="path845"
         d="m 45.467039,47.027901 h -0.609071 c -0.02249,0 -0.04498,0.02254 -0.04498,0.04511 v 2.639192 c 0,0.02257 0.02249,0.04511 0.04498,0.04511 h 0.609071 c 0.02249,0 0.04524,-0.02254 0.04524,-0.04511 v -2.639192 -0.02257 c 0,0 0,0 0,-0.02254 -0.02275,0 -0.02275,0 -0.04524,0 0.02249,0 0.02249,0 0,0 z"
         inkscape:connector-curvature="0"
         style="fill:#2ebd59;stroke-width:0.26458332" />
      <path
         id="path847"
         d="m 45.17388,45.832355 c -0.248179,0 -0.428625,0.203015 -0.428625,0.428599 0,0.248126 0.202936,0.428598 0.428625,0.428598 0.248179,0 0.428625,-0.203015 0.428625,-0.428598 0,-0.248127 -0.180446,-0.428599 -0.428625,-0.428599 z"
         inkscape:connector-curvature="0"
         style="fill:#2ebd59;stroke-width:0.26458332" />
      <path
         id="path849"
         d="m 50.474807,47.027901 c -0.248179,0 -0.428625,0.203015 -0.428625,0.428572 0,0.225584 0.180446,0.428599 0.428625,0.428599 0.248179,0 0.428625,-0.203015 0.428625,-0.428599 0,-0.248126 -0.180446,-0.428572 -0.428625,-0.428572 z m 0,0.812059 c -0.225689,0 -0.383381,-0.180472 -0.383381,-0.383487 0,-0.203014 0.157692,-0.38346 0.383381,-0.38346 0.22569,0 0.383382,0.180446 0.383382,0.38346 0,0.203015 -0.157692,0.383487 -0.383382,0.383487 z"
         inkscape:connector-curvature="0"
         style="fill:#2ebd59;stroke-width:0.26458332" />
      <path
         id="path851"
         d="m 50.56503,47.479042 c 0.06773,-0.02257 0.112713,-0.06768 0.112713,-0.13536 0,-0.09022 -0.06773,-0.135335 -0.180446,-0.135335 h -0.202936 v 0.451141 h 0.09022 v -0.157903 h 0.09022 l 0.112713,0.157903 h 0.112977 z M 50.4973,47.433932 H 50.384584 V 47.29857 h 0.112713 c 0.04524,0 0.09022,0.02257 0.09022,0.06768 0,0.04511 -0.04498,0.06768 -0.09022,0.06768 z"
         inkscape:connector-curvature="0"
         style="fill:#2ebd59;stroke-width:0.26458332" />
      <g
         aria-label="Słuchaj w"
         style="font-style:normal;font-variant:normal;font-weight:normal;font-stretch:normal;font-size:4.59036207px;line-height:1.25;font-family:'Open Sans';-inkscape-font-specification:'Open Sans';letter-spacing:0px;word-spacing:0px;fill:#212b38;fill-opacity:1;stroke:none;stroke-width:0.28689763"
         id="text903">
        <path
           d="m 35.068867,44.308964 q 0,0.221897 -0.16026,0.349656 -0.159138,0.127759 -0.443794,0.127759 -0.262243,0 -0.463968,-0.09862 v -0.322759 q 0.165863,0.07397 0.280174,0.104224 0.115431,0.03026 0.21069,0.03026 0.114311,0 0.174829,-0.04371 0.06164,-0.04371 0.06164,-0.130001 0,-0.04819 -0.0269,-0.08517 -0.0269,-0.0381 -0.07957,-0.07285 -0.05155,-0.03474 -0.211811,-0.110948 -0.150173,-0.0706 -0.22526,-0.135604 -0.07509,-0.065 -0.119914,-0.151294 -0.04483,-0.08629 -0.04483,-0.201725 0,-0.217414 0.146811,-0.341811 0.147932,-0.124397 0.407933,-0.124397 0.127759,0 0.24319,0.03026 0.116552,0.03026 0.243191,0.08517 l -0.11207,0.270087 q -0.131121,-0.05379 -0.217414,-0.07509 -0.08517,-0.02129 -0.168104,-0.02129 -0.09862,0 -0.151294,0.04595 -0.05267,0.04595 -0.05267,0.119914 0,0.04595 0.02129,0.08069 0.02129,0.03362 0.06724,0.06612 0.04707,0.03138 0.220777,0.114311 0.229742,0.109828 0.314915,0.220777 0.08517,0.109828 0.08517,0.270087 z"
           style="font-style:normal;font-variant:normal;font-weight:bold;font-stretch:normal;font-size:2.29518104px;font-family:'Open Sans';-inkscape-font-specification:'Open Sans Bold';fill:#212b38;fill-opacity:1;stroke-width:0.28689763"
           id="path968" />
        <path
           d="m 35.707662,43.72172 0.07845,-0.04819 0.131121,0.220777 -0.20957,0.125518 v 0.744141 H 35.36585 v -0.534571 l -0.07957,0.04819 -0.126638,-0.220776 0.206207,-0.125518 v -0.911124 h 0.341812 z"
           style="font-style:normal;font-variant:normal;font-weight:bold;font-stretch:normal;font-size:2.29518104px;font-family:'Open Sans';-inkscape-font-specification:'Open Sans Bold';fill:#212b38;fill-opacity:1;stroke-width:0.28689763"
           id="path970" />
        <path
           d="m 36.984132,44.763966 -0.04595,-0.16026 h -0.01793 q -0.05491,0.08742 -0.155777,0.135604 -0.100862,0.04707 -0.229742,0.04707 -0.220777,0 -0.332846,-0.117672 -0.112069,-0.118794 -0.112069,-0.340691 V 43.51103 h 0.341811 v 0.731813 q 0,0.135604 0.04819,0.203966 0.04819,0.06724 0.153535,0.06724 0.143449,0 0.207329,-0.09526 0.06388,-0.09638 0.06388,-0.318277 V 43.51103 h 0.341812 v 1.252936 z"
           style="font-style:normal;font-variant:normal;font-weight:bold;font-stretch:normal;font-size:2.29518104px;font-family:'Open Sans';-inkscape-font-specification:'Open Sans Bold';fill:#212b38;fill-opacity:1;stroke-width:0.28689763"
           id="path972" />
        <path
           d="m 38.065724,44.786379 q -0.585002,0 -0.585002,-0.642157 0,-0.319398 0.159138,-0.487502 0.159139,-0.169225 0.456123,-0.169225 0.217414,0 0.390001,0.08517 l -0.100862,0.264484 q -0.08069,-0.0325 -0.150173,-0.05267 -0.06948,-0.02129 -0.138966,-0.02129 -0.266725,0 -0.266725,0.378795 0,0.367587 0.266725,0.367587 0.09862,0 0.182673,-0.02578 0.08405,-0.0269 0.168104,-0.08293 v 0.292501 q -0.08293,0.05267 -0.168104,0.07285 -0.08405,0.02017 -0.212932,0.02017 z"
           style="font-style:normal;font-variant:normal;font-weight:bold;font-stretch:normal;font-size:2.29518104px;font-family:'Open Sans';-inkscape-font-specification:'Open Sans Bold';fill:#212b38;fill-opacity:1;stroke-width:0.28689763"
           id="path974"
           inkscape:connector-curvature="0" />
        <path
           d="m 39.893575,44.763966 h -0.341811 v -0.731813 q 0,-0.271208 -0.201725,-0.271208 -0.143449,0 -0.207328,0.0975 -0.06388,0.0975 -0.06388,0.316036 v 0.589485 h -0.341812 v -1.7438 h 0.341812 v 0.35526 q 0,0.04147 -0.0078,0.195001 l -0.0078,0.100862 h 0.01793 q 0.114311,-0.183794 0.363105,-0.183794 0.220777,0 0.335088,0.118794 0.11431,0.118793 0.11431,0.340691 z"
           style="font-style:normal;font-variant:normal;font-weight:bold;font-stretch:normal;font-size:2.29518104px;font-family:'Open Sans';-inkscape-font-specification:'Open Sans Bold';fill:#212b38;fill-opacity:1;stroke-width:0.28689763"
           id="path976"
           inkscape:connector-curvature="0" />
        <path
           d="m 41.017132,44.763966 -0.06612,-0.170346 h -0.009 q -0.08629,0.108707 -0.178191,0.151294 -0.09078,0.04146 -0.237587,0.04146 -0.180431,0 -0.284656,-0.103103 -0.103104,-0.103104 -0.103104,-0.293622 0,-0.199484 0.138966,-0.293622 0.140087,-0.09526 0.421381,-0.105345 l 0.217415,-0.0067 v -0.05491 q 0,-0.190518 -0.195001,-0.190518 -0.150173,0 -0.353018,0.09078 l -0.113191,-0.230863 q 0.216294,-0.11319 0.479657,-0.11319 0.252157,0 0.38664,0.109828 0.134483,0.109828 0.134483,0.333967 v 0.834917 z m -0.100862,-0.58052 -0.132242,0.0045 q -0.149052,0.0045 -0.221897,0.05379 -0.07285,0.04931 -0.07285,0.150173 0,0.14457 0.165863,0.14457 0.118794,0 0.189397,-0.06836 0.07173,-0.06836 0.07173,-0.181552 z"
           style="font-style:normal;font-variant:normal;font-weight:bold;font-stretch:normal;font-size:2.29518104px;font-family:'Open Sans';-inkscape-font-specification:'Open Sans Bold';fill:#212b38;fill-opacity:1;stroke-width:0.28689763"
           id="path978"
           inkscape:connector-curvature="0" />
        <path
           d="m 41.506875,45.315347 q -0.131121,0 -0.225259,-0.02802 V 45.01836 q 0.07845,0.02129 0.160259,0.02129 0.08629,0 0.125518,-0.04819 0.04035,-0.04819 0.04035,-0.142328 V 43.51103 h 0.341811 v 1.38854 q 0,0.199483 -0.115431,0.30707 -0.115431,0.108707 -0.327243,0.108707 z m 0.08629,-2.128198 q 0,-0.166983 0.186035,-0.166983 0.186035,0 0.186035,0.166983 0,0.07957 -0.04707,0.124397 -0.04595,0.04371 -0.138966,0.04371 -0.186035,0 -0.186035,-0.168104 z"
           style="font-style:normal;font-variant:normal;font-weight:bold;font-stretch:normal;font-size:2.29518104px;font-family:'Open Sans';-inkscape-font-specification:'Open Sans Bold';fill:#212b38;fill-opacity:1;stroke-width:0.28689763"
           id="path980"
           inkscape:connector-curvature="0" />
        <path
           d="m 44.0064,44.763966 -0.09638,-0.438192 -0.130001,-0.553622 h -0.0078 l -0.228621,0.991814 H 43.175966 L 42.819585,43.51103 h 0.340691 l 0.14457,0.554743 q 0.03474,0.149053 0.0706,0.411295 h 0.0067 q 0.0045,-0.08517 0.03922,-0.270087 l 0.01793,-0.09526 0.154656,-0.600692 h 0.376553 l 0.146811,0.600692 q 0.0045,0.02466 0.01345,0.07285 0.01009,0.04819 0.01905,0.103104 0.009,0.05379 0.01569,0.106466 0.0078,0.05155 0.009,0.08293 h 0.0067 q 0.01009,-0.08069 0.03586,-0.220777 0.02578,-0.141207 0.03698,-0.190518 l 0.150173,-0.554743 h 0.335087 l -0.360863,1.252936 z"
           style="font-style:normal;font-variant:normal;font-weight:bold;font-stretch:normal;font-size:2.29518104px;font-family:'Open Sans';-inkscape-font-specification:'Open Sans Bold';fill:#212b38;fill-opacity:1;stroke-width:0.28689763"
           id="path982" />
      </g>
    </g>
  </g>
</svg>
